<?xml version="1.0" encoding="UTF-8"?>
<svg id="Layer_1" data-name="Layer 1" xmlns="http://www.w3.org/2000/svg" viewBox="0 0 576.62 586.26">
  <defs>
    <style>
      .cls-1 {
        fill: #ff7d00;
        stroke-width: 0px;
      }
    </style>
  </defs>
  <g>
    <path class="cls-1" d="m291.14,297.22s-.03-.06,0-.09.06-.03.09,0c.03.02.03.06,0,.09-.02.03-.06.03-.09,0Z"/>
    <path class="cls-1" d="m289.98,297.84s-.05-.11-.01-.16c.04-.05.11-.05.16-.01.05.04.05.11.01.16s-.11.05-.16.01Z"/>
    <path class="cls-1" d="m288.71,298.13c-.07-.05-.07-.15-.02-.22.05-.07.15-.07.22-.02s.07.15.02.22-.15.07-.22.02Z"/>
    <path class="cls-1" d="m287.42,298.09c-.08-.07-.09-.19-.02-.27.07-.08.19-.09.27-.02.08.07.09.19.02.27-.07.08-.19.09-.27.02Z"/>
    <path class="cls-1" d="m286.19,297.72c-.09-.08-.11-.22-.03-.31.08-.09.22-.11.31-.03.09.08.11.22.03.31s-.22.11-.31.03Z"/>
    <path class="cls-1" d="m285.12,297.03c-.1-.09-.12-.24-.03-.35.09-.1.24-.12.34-.03.1.09.12.24.03.35s-.24.12-.34.03Z"/>
    <path class="cls-1" d="m284.27,296.1c-.11-.09-.13-.26-.03-.38.1-.11.26-.13.38-.03.11.09.13.26.03.38-.09.11-.26.13-.38.03Z"/>
    <path class="cls-1" d="m283.7,294.97c-.12-.1-.13-.28-.03-.4.1-.12.28-.13.4-.03.12.1.13.28.03.4-.1.12-.28.13-.4.03Z"/>
    <path class="cls-1" d="m283.45,293.73c-.13-.11-.14-.29-.04-.42.11-.13.29-.14.42-.04.13.11.14.29.04.42-.11.13-.29.14-.42.04Z"/>
    <path class="cls-1" d="m283.54,292.47c-.13-.11-.15-.3-.04-.43s.3-.15.43-.04c.13.11.15.3.04.43s-.3.15-.43.04Z"/>
    <path class="cls-1" d="m283.95,291.28c-.13-.11-.15-.31-.04-.44.11-.13.31-.15.44-.04.13.11.15.31.04.44-.11.13-.31.15-.44.04Z"/>
    <path class="cls-1" d="m284.68,290.24c-.13-.11-.15-.31-.04-.44.11-.13.31-.15.44-.04.13.11.15.31.04.44-.11.13-.31.15-.44.04Z"/>
    <path class="cls-1" d="m285.65,289.42c-.13-.11-.15-.31-.04-.44.11-.13.31-.15.44-.04s.15.31.04.44-.31.15-.44.04Z"/>
    <path class="cls-1" d="m286.8,288.87c-.13-.11-.15-.3-.04-.43.11-.13.3-.15.43-.04.13.11.15.3.04.43-.11.13-.3.15-.43.04Z"/>
    <path class="cls-1" d="m288.06,288.65c-.12-.1-.14-.29-.04-.41.1-.12.29-.14.41-.04.12.1.14.29.04.41-.1.12-.29.14-.41.04Z"/>
    <path class="cls-1" d="m289.33,288.76c-.12-.1-.13-.27-.03-.39s.27-.13.39-.03c.12.1.13.27.03.39-.1.12-.27.13-.39.03Z"/>
    <path class="cls-1" d="m290.53,289.19c-.11-.09-.13-.26-.03-.37.09-.11.26-.13.37-.03s.13.26.03.37c-.09.11-.26.13-.37.03Z"/>
    <path class="cls-1" d="m291.58,289.91c-.1-.08-.11-.24-.03-.34s.24-.11.34-.03.11.24.03.34-.24.11-.34.03Z"/>
    <path class="cls-1" d="m292.39,290.88c-.09-.08-.1-.21-.03-.3s.21-.1.3-.03.1.21.03.3c-.08.09-.21.1-.3.03Z"/>
    <path class="cls-1" d="m292.93,292.01c-.08-.06-.09-.18-.02-.25.06-.08.18-.09.25-.02.08.06.09.18.02.25-.06.08-.18.09-.25.02Z"/>
    <path class="cls-1" d="m293.15,293.24c-.06-.05-.07-.14-.02-.2.05-.06.14-.07.2-.02.06.05.07.14.02.2-.05.06-.14.07-.2.02Z"/>
    <path class="cls-1" d="m293.03,294.47s-.05-.1-.01-.14.1-.05.14-.01.05.1.01.14-.1.05-.14.01Z"/>
    <path class="cls-1" d="m292.6,295.61s-.02-.04,0-.06c.02-.02.04-.02.06,0,.02.02.02.04,0,.06-.02.02-.04.02-.06,0Z"/>
  </g>
  <g>
    <path class="cls-1" d="m286.19,298.58s.04-.07.08-.06c.04,0,.07.04.06.08,0,.04-.04.07-.08.06-.04,0-.07-.04-.06-.08Z"/>
    <path class="cls-1" d="m284.82,297.85c0-.07.07-.12.14-.12.07,0,.12.07.12.14,0,.07-.07.12-.14.12-.07,0-.12-.07-.12-.14Z"/>
    <path class="cls-1" d="m283.69,296.81c.01-.1.1-.17.2-.16.1.01.17.1.16.2-.01.1-.1.17-.2.16-.1-.01-.17-.1-.16-.2Z"/>
    <path class="cls-1" d="m282.89,295.52c.01-.12.12-.21.24-.2.12.01.21.12.2.24-.01.12-.12.21-.24.2-.12-.01-.21-.12-.2-.24Z"/>
    <path class="cls-1" d="m282.45,294.08c.01-.14.14-.25.28-.23.14.02.25.14.23.29s-.14.25-.28.23c-.14-.01-.25-.14-.23-.29Z"/>
    <path class="cls-1" d="m282.41,292.58c.02-.16.16-.27.32-.26.16.02.27.16.26.32-.02.16-.16.27-.32.26-.16-.02-.27-.16-.26-.32Z"/>
    <path class="cls-1" d="m282.76,291.14c.02-.17.17-.3.35-.28s.3.17.28.35c-.02.17-.17.3-.35.28-.17-.02-.3-.17-.28-.35Z"/>
    <path class="cls-1" d="m283.48,289.84c.02-.18.18-.31.36-.3.18.02.31.18.3.36-.02.18-.18.31-.36.3-.18-.02-.31-.18-.3-.36Z"/>
    <path class="cls-1" d="m284.53,288.78c.02-.19.19-.33.38-.31.19.02.33.19.31.38s-.19.33-.38.31c-.19-.02-.33-.19-.31-.38Z"/>
    <path class="cls-1" d="m285.81,288.04c.02-.2.2-.34.39-.32s.34.2.32.39c-.02.2-.2.34-.39.32-.2-.02-.34-.2-.32-.39Z"/>
    <path class="cls-1" d="m287.25,287.66c.02-.2.2-.35.4-.32.2.02.35.2.32.4-.02.2-.2.35-.4.32-.2-.02-.35-.2-.32-.4Z"/>
    <path class="cls-1" d="m288.74,287.68c.02-.2.2-.35.4-.33.2.02.35.2.33.4-.02.2-.2.35-.4.33s-.35-.2-.33-.4Z"/>
    <path class="cls-1" d="m290.18,288.09c.02-.2.2-.35.4-.32.2.02.35.2.32.4-.02.2-.2.35-.4.32-.2-.02-.35-.2-.32-.4Z"/>
    <path class="cls-1" d="m291.47,288.86c.02-.2.2-.34.39-.32.2.02.34.2.32.39-.02.2-.2.34-.39.32-.2-.02-.34-.2-.32-.39Z"/>
    <path class="cls-1" d="m292.52,289.94c.02-.19.19-.33.38-.31.19.02.33.19.31.38-.02.19-.19.33-.38.31-.19-.02-.33-.19-.31-.38Z"/>
    <path class="cls-1" d="m293.25,291.25c.02-.18.18-.31.36-.29.18.02.31.18.29.36-.02.18-.18.31-.36.29-.18-.02-.31-.18-.29-.36Z"/>
    <path class="cls-1" d="m293.62,292.7c.02-.17.17-.29.34-.28.17.02.29.17.28.34-.02.17-.17.29-.34.28-.17-.02-.29-.17-.28-.34Z"/>
    <path class="cls-1" d="m293.6,294.2c.02-.15.15-.27.31-.25.15.02.27.15.25.31-.02.15-.15.27-.31.25-.15-.02-.27-.15-.25-.31Z"/>
    <path class="cls-1" d="m293.2,295.63c.01-.14.14-.24.28-.22.14.01.24.14.22.28s-.14.24-.28.22c-.14-.01-.24-.14-.22-.28Z"/>
    <path class="cls-1" d="m292.44,296.9c.01-.12.12-.2.23-.19.12.01.2.12.19.23-.01.12-.12.2-.23.19-.12-.01-.2-.12-.19-.23Z"/>
    <path class="cls-1" d="m291.39,297.92c0-.09.09-.16.18-.15.09,0,.16.09.15.18s-.09.16-.18.15-.16-.09-.15-.18Z"/>
    <path class="cls-1" d="m290.11,298.62c0-.06.06-.11.13-.1.06,0,.11.06.1.13s-.06.11-.13.1-.11-.06-.1-.13Z"/>
    <path class="cls-1" d="m288.72,298.94s.03-.05.06-.05c.03,0,.05.03.05.06,0,.03-.03.05-.06.05-.03,0-.05-.03-.05-.06Z"/>
  </g>
  <g>
    <path class="cls-1" d="m281.6,294.64s.09,0,.11.03c.02.04,0,.09-.03.11s-.09,0-.11-.03c-.02-.04,0-.09.04-.11Z"/>
    <path class="cls-1" d="m281.41,292.83c.07-.04.17-.01.21.06.04.07.01.17-.06.21-.07.04-.17.01-.21-.06-.04-.07-.01-.17.06-.21Z"/>
    <path class="cls-1" d="m281.69,291.05c.1-.06.23-.02.29.09.06.1.02.23-.09.29-.1.06-.23.02-.29-.09-.06-.1-.02-.23.09-.29Z"/>
    <path class="cls-1" d="m282.41,289.41c.13-.07.29-.02.35.11.07.13.02.29-.11.35s-.29.02-.35-.11c-.07-.13-.02-.29.11-.35Z"/>
    <path class="cls-1" d="m283.53,288.04c.15-.08.33-.02.41.13s.02.33-.13.41c-.15.08-.33.02-.41-.13-.08-.15-.02-.33.13-.41Z"/>
    <path class="cls-1" d="m284.96,287.01c.17-.09.37-.02.46.14s.03.37-.14.46c-.17.09-.37.02-.46-.14-.09-.17-.02-.37.14-.46Z"/>
    <path class="cls-1" d="m286.6,286.4c.18-.1.4-.03.5.15.1.18.03.4-.15.5-.18.1-.4.03-.5-.15-.1-.18-.03-.4.15-.5Z"/>
    <path class="cls-1" d="m288.35,286.26c.19-.1.43-.03.53.16.1.19.03.43-.16.53-.19.1-.43.03-.53-.16-.1-.19-.03-.43.16-.53Z"/>
    <path class="cls-1" d="m290.06,286.58c.2-.11.45-.03.56.17.11.2.03.45-.17.56-.2.11-.45.03-.56-.17-.11-.2-.03-.45.17-.56Z"/>
    <path class="cls-1" d="m291.63,287.34c.21-.11.46-.03.57.17.11.21.03.46-.17.57-.21.11-.46.03-.57-.17s-.03-.46.17-.57Z"/>
    <path class="cls-1" d="m292.95,288.5c.21-.11.47-.03.58.18.11.21.03.47-.18.58-.21.11-.47.03-.58-.18s-.03-.47.18-.58Z"/>
    <path class="cls-1" d="m293.91,289.97c.21-.11.47-.03.58.18.11.21.03.47-.18.58-.21.11-.47.03-.58-.18-.11-.21-.03-.47.18-.58Z"/>
    <path class="cls-1" d="m294.46,291.64c.21-.11.47-.03.58.18.11.21.03.47-.18.58-.21.11-.47.03-.58-.18-.11-.21-.03-.47.18-.58Z"/>
    <path class="cls-1" d="m294.56,293.4c.2-.11.46-.03.57.17.11.2.03.46-.17.57-.2.11-.46.03-.57-.17-.11-.2-.03-.46.17-.57Z"/>
    <path class="cls-1" d="m294.19,295.13c.2-.11.44-.03.55.17.11.2.03.44-.17.55-.2.11-.44.03-.55-.17-.11-.2-.03-.44.17-.55Z"/>
    <path class="cls-1" d="m293.4,296.71c.19-.1.42-.03.52.16.1.19.03.42-.16.52s-.42.03-.52-.16c-.1-.19-.03-.42.16-.52Z"/>
    <path class="cls-1" d="m292.22,298.02c.18-.09.4-.03.49.15.09.18.03.4-.15.49-.18.09-.4.03-.49-.15-.09-.18-.03-.4.15-.49Z"/>
    <path class="cls-1" d="m290.75,298.99c.16-.09.36-.02.45.14.09.16.02.36-.14.45-.16.09-.36.02-.45-.14-.09-.16-.02-.36.14-.45Z"/>
    <path class="cls-1" d="m289.09,299.54c.14-.08.32-.02.4.12.08.14.02.32-.12.4-.14.08-.32.02-.4-.12-.08-.14-.02-.32.12-.4Z"/>
    <path class="cls-1" d="m287.35,299.64c.12-.06.27-.02.34.1.06.12.02.27-.1.34-.12.06-.27.02-.34-.1-.06-.12-.02-.27.1-.34Z"/>
    <path class="cls-1" d="m285.67,299.28c.1-.05.22-.01.27.08.05.1.01.22-.08.27-.1.05-.22.01-.27-.08s-.01-.22.08-.27Z"/>
    <path class="cls-1" d="m284.15,298.5c.07-.04.15-.01.19.06s.01.15-.06.18-.15.01-.18-.06-.01-.15.06-.18Z"/>
    <path class="cls-1" d="m282.91,297.35s.07,0,.08.03c.02.03,0,.07-.03.08-.03.02-.07,0-.08-.03-.02-.03,0-.07.03-.08Z"/>
  </g>
  <g>
    <path class="cls-1" d="m282.43,287.58s.07.09.04.13-.09.07-.13.04c-.05-.03-.07-.09-.04-.13.03-.05.09-.07.13-.04Z"/>
    <path class="cls-1" d="m284.07,286.2c.09.05.12.16.07.24-.05.09-.16.12-.24.07-.09-.05-.12-.16-.07-.24s.16-.12.24-.07Z"/>
    <path class="cls-1" d="m285.99,285.3c.12.07.17.22.1.34-.06.12-.22.17-.34.1s-.17-.22-.1-.34c.07-.12.22-.17.34-.1Z"/>
    <path class="cls-1" d="m288.06,284.93c.15.08.21.27.13.42-.08.15-.27.21-.42.13-.15-.08-.21-.27-.13-.42s.27-.21.42-.13Z"/>
    <path class="cls-1" d="m290.14,285.11c.18.09.24.31.15.48-.09.18-.31.24-.48.15-.18-.09-.24-.31-.15-.48.09-.18.31-.24.48-.15Z"/>
    <path class="cls-1" d="m292.08,285.84c.19.1.27.34.16.54-.1.19-.34.27-.54.16-.19-.1-.27-.34-.16-.54.1-.19.34-.27.54-.16Z"/>
    <path class="cls-1" d="m293.75,287.04c.21.11.29.38.18.59-.11.21-.38.29-.59.18-.21-.11-.29-.38-.18-.59.11-.21.38-.29.59-.18Z"/>
    <path class="cls-1" d="m295.04,288.64c.22.12.31.4.19.62-.12.22-.4.31-.62.19-.22-.12-.31-.4-.19-.62.12-.22.4-.31.62-.19Z"/>
    <path class="cls-1" d="m295.86,290.53c.24.13.33.42.2.65-.13.24-.42.32-.65.2-.24-.13-.33-.42-.2-.65.13-.24.42-.33.65-.2Z"/>
    <path class="cls-1" d="m296.14,292.56c.24.13.33.43.21.67-.13.24-.43.33-.67.21-.24-.13-.33-.43-.21-.67s.43-.33.67-.21Z"/>
    <path class="cls-1" d="m295.88,294.61c.25.13.34.44.21.68-.13.25-.44.34-.68.21-.25-.13-.34-.44-.21-.68.13-.25.44-.34.68-.21Z"/>
    <path class="cls-1" d="m295.08,296.51c.25.13.34.44.21.69-.13.25-.44.34-.69.21-.25-.13-.34-.44-.21-.69.13-.25.44-.34.69-.21Z"/>
    <path class="cls-1" d="m293.82,298.15c.25.13.34.44.21.68-.13.25-.44.34-.68.21-.25-.13-.34-.44-.21-.68.13-.25.44-.34.68-.21Z"/>
    <path class="cls-1" d="m292.16,299.4c.24.13.33.43.2.67-.13.24-.43.33-.67.2-.24-.13-.33-.43-.2-.67.13-.24.43-.33.67-.2Z"/>
    <path class="cls-1" d="m290.23,300.18c.23.12.32.41.2.65-.12.23-.41.32-.65.2-.23-.12-.32-.41-.2-.65.12-.23.41-.32.65-.2Z"/>
    <path class="cls-1" d="m288.17,300.45c.22.12.31.39.19.61-.12.22-.39.31-.61.19-.22-.12-.31-.39-.19-.61.12-.22.39-.3.61-.19Z"/>
    <path class="cls-1" d="m286.11,300.16c.21.11.29.37.18.58-.11.21-.37.29-.58.18-.21-.11-.29-.37-.18-.58.11-.21.37-.29.58-.18Z"/>
    <path class="cls-1" d="m284.2,299.36c.19.1.26.34.16.53-.1.19-.34.26-.53.16-.19-.1-.26-.34-.16-.53.1-.19.34-.26.53-.16Z"/>
    <path class="cls-1" d="m282.57,298.1c.17.09.23.3.14.47-.09.17-.3.23-.47.14-.17-.09-.23-.3-.14-.47.09-.17.3-.23.47-.14Z"/>
    <path class="cls-1" d="m281.34,296.48c.14.08.2.25.12.4-.08.14-.25.2-.4.12-.14-.08-.2-.25-.12-.4.08-.14.25-.2.4-.12Z"/>
    <path class="cls-1" d="m280.58,294.6c.11.06.16.2.1.31-.06.11-.2.16-.31.1-.11-.06-.16-.2-.1-.31.06-.11.2-.16.31-.1Z"/>
    <path class="cls-1" d="m280.34,292.6c.08.04.11.14.07.22-.04.08-.14.11-.22.07-.08-.04-.11-.14-.07-.22.04-.08.14-.11.22-.07Z"/>
    <path class="cls-1" d="m280.65,290.64s.05.06.03.1c-.02.04-.06.05-.1.03-.04-.02-.05-.06-.03-.1.02-.04.06-.05.1-.03Z"/>
  </g>
  <g>
    <path class="cls-1" d="m289.85,283.74c0,.06-.04.12-.1.13-.06,0-.12-.04-.13-.1,0-.06.04-.12.1-.13.06,0,.12.04.13.1Z"/>
    <path class="cls-1" d="m292.28,284.43c.01.12-.07.22-.19.23-.12.01-.22-.07-.23-.19s.07-.22.19-.23.22.07.23.19Z"/>
    <path class="cls-1" d="m294.42,285.71c.02.16-.1.31-.26.32s-.31-.1-.32-.26c-.02-.16.1-.31.26-.32.16-.02.31.1.32.26Z"/>
    <path class="cls-1" d="m296.14,287.49c.02.2-.12.38-.32.4s-.38-.12-.4-.32.12-.38.32-.4.38.12.4.32Z"/>
    <path class="cls-1" d="m297.33,289.63c.02.23-.14.44-.38.46-.23.02-.44-.14-.46-.38-.02-.23.14-.44.38-.46s.44.14.46.38Z"/>
    <path class="cls-1" d="m297.9,292c.03.26-.16.49-.42.52-.26.03-.49-.16-.52-.42s.16-.49.42-.52.49.16.52.42Z"/>
    <path class="cls-1" d="m297.83,294.43c.03.28-.17.53-.46.56-.28.03-.53-.17-.56-.46-.03-.28.17-.53.46-.56.28-.03.53.17.56.46Z"/>
    <path class="cls-1" d="m297.12,296.74c.03.3-.18.56-.48.59-.3.03-.56-.18-.59-.48-.03-.3.18-.56.48-.59.3-.03.56.18.59.48Z"/>
    <path class="cls-1" d="m295.82,298.78c.03.31-.19.59-.51.62-.31.03-.59-.19-.62-.51-.03-.31.19-.59.51-.62.31-.03.59.19.62.51Z"/>
    <path class="cls-1" d="m294.02,300.39c.03.32-.2.61-.52.64-.32.03-.61-.2-.64-.52-.03-.32.2-.61.52-.64.32-.03.61.2.64.52Z"/>
    <path class="cls-1" d="m291.85,301.48c.03.33-.2.62-.53.65-.33.03-.62-.2-.65-.53-.03-.33.2-.62.53-.65.33-.03.62.2.65.53Z"/>
    <path class="cls-1" d="m289.47,301.96c.03.33-.2.62-.53.66-.33.03-.62-.2-.66-.53-.03-.33.2-.62.53-.66.33-.03.62.2.66.53Z"/>
    <path class="cls-1" d="m287.04,301.8c.03.33-.2.62-.53.65s-.62-.2-.65-.53c-.03-.33.2-.62.53-.65.33-.03.62.2.65.53Z"/>
    <path class="cls-1" d="m284.73,301.01c.03.32-.2.61-.52.64s-.61-.2-.64-.52c-.03-.32.2-.61.52-.64.32-.03.61.2.64.52Z"/>
    <path class="cls-1" d="m282.7,299.65c.03.31-.19.59-.5.62s-.59-.19-.62-.5c-.03-.31.19-.58.5-.62.31-.03.58.19.62.5Z"/>
    <path class="cls-1" d="m281.08,297.8c.03.29-.18.56-.47.59-.29.03-.56-.18-.59-.47-.03-.29.18-.56.47-.59.29-.03.56.18.59.47Z"/>
    <path class="cls-1" d="m280.01,295.61c.03.28-.17.53-.45.55-.28.03-.53-.17-.55-.45-.03-.28.17-.52.45-.55.28-.03.53.17.55.45Z"/>
    <path class="cls-1" d="m279.53,293.22c.03.25-.16.48-.41.5-.25.03-.48-.16-.5-.41s.16-.48.41-.5c.25-.03.48.16.5.41Z"/>
    <path class="cls-1" d="m279.69,290.81c.02.23-.14.43-.36.45-.23.02-.43-.14-.45-.36-.02-.23.14-.43.36-.45.23-.02.43.14.45.36Z"/>
    <path class="cls-1" d="m280.46,288.53c.02.19-.12.36-.31.38-.19.02-.36-.12-.38-.31-.02-.19.12-.36.31-.38.19-.02.36.12.38.31Z"/>
    <path class="cls-1" d="m281.79,286.55c.02.15-.09.28-.24.3-.15.02-.28-.09-.3-.24-.02-.15.09-.28.24-.3.15-.02.28.09.3.24Z"/>
    <path class="cls-1" d="m283.59,285.01c.01.1-.06.2-.17.21-.1.01-.2-.06-.21-.17-.01-.1.06-.2.17-.21.1-.01.2.06.21.17Z"/>
    <path class="cls-1" d="m285.7,284.02s-.03.09-.08.1c-.05,0-.09-.03-.1-.08,0-.05.03-.09.08-.1.05,0,.09.03.1.08Z"/>
  </g>
  <g>
    <path class="cls-1" d="m298.49,288.46c-.06.05-.14.04-.19-.02-.05-.06-.04-.14.02-.19.06-.05.14-.04.19.02.05.06.04.14-.02.19Z"/>
    <path class="cls-1" d="m299.41,291.28c-.11.09-.26.07-.35-.03-.09-.11-.07-.26.03-.35s.26-.07.35.03c.09.11.07.26-.03.35Z"/>
    <path class="cls-1" d="m299.57,294.21c-.15.12-.37.1-.49-.04-.12-.15-.1-.37.04-.49.15-.12.37-.1.49.04.12.15.1.37-.04.49Z"/>
    <path class="cls-1" d="m298.97,297.06c-.18.15-.45.13-.6-.05s-.13-.45.05-.6c.18-.15.45-.13.6.05s.13.45-.05.6Z"/>
    <path class="cls-1" d="m297.66,299.63c-.21.18-.52.15-.7-.06-.18-.21-.15-.52.06-.7.21-.18.52-.15.7.06s.15.52-.06.7Z"/>
    <path class="cls-1" d="m295.72,301.75c-.23.2-.58.17-.78-.07-.2-.23-.17-.58.07-.78.23-.2.58-.17.78.07.2.23.17.58-.07.78Z"/>
    <path class="cls-1" d="m293.31,303.27c-.25.21-.63.18-.85-.07-.21-.25-.18-.63.07-.85.25-.21.63-.18.85.07.21.25.18.63-.07.85Z"/>
    <path class="cls-1" d="m290.58,304.09c-.27.23-.67.19-.9-.08-.23-.27-.19-.67.08-.9.27-.23.67-.19.9.08.23.27.19.67-.08.9Z"/>
    <path class="cls-1" d="m287.74,304.16c-.28.24-.7.2-.94-.08-.24-.28-.2-.7.08-.94.28-.24.7-.2.94.08.24.28.2.7-.08.94Z"/>
    <path class="cls-1" d="m284.98,303.48c-.29.24-.73.21-.97-.08-.24-.29-.21-.73.08-.97.29-.24.73-.21.97.08.24.29.21.73-.08.97Z"/>
    <path class="cls-1" d="m282.5,302.08c-.3.25-.74.21-.99-.09-.25-.3-.21-.74.09-.99.3-.25.74-.21.99.09.25.3.21.74-.09.99Z"/>
    <path class="cls-1" d="m280.47,300.07c-.3.25-.74.21-.99-.09s-.21-.74.09-.99.74-.21.99.09c.25.3.21.74-.09.99Z"/>
    <path class="cls-1" d="m279.02,297.6c-.3.25-.74.21-.98-.09-.25-.3-.21-.74.09-.98.3-.25.74-.21.98.09.25.3.21.74-.09.98Z"/>
    <path class="cls-1" d="m278.27,294.82c-.29.24-.72.21-.96-.08-.24-.29-.2-.72.08-.96.29-.24.72-.21.96.08.24.29.21.72-.08.96Z"/>
    <path class="cls-1" d="m278.27,291.94c-.28.23-.7.2-.93-.08-.23-.28-.2-.7.08-.93.28-.23.7-.2.93.08.23.28.2.7-.08.93Z"/>
    <path class="cls-1" d="m279,289.16c-.27.22-.66.19-.88-.08-.22-.27-.19-.66.08-.88.27-.22.66-.19.88.08.22.27.19.66-.08.88Z"/>
    <path class="cls-1" d="m280.43,286.67c-.25.21-.63.18-.84-.07-.21-.25-.18-.63.07-.84.25-.21.63-.18.84.07.21.25.18.63-.07.84Z"/>
    <path class="cls-1" d="m282.45,284.63c-.23.19-.57.16-.76-.07-.19-.23-.16-.57.07-.76.23-.19.57-.16.76.07.19.23.16.57-.07.76Z"/>
    <path class="cls-1" d="m284.91,283.19c-.2.17-.51.14-.68-.06-.17-.2-.14-.51.06-.68.2-.17.51-.14.68.06.17.2.14.51-.06.68Z"/>
    <path class="cls-1" d="m287.64,282.45c-.17.14-.43.12-.57-.05s-.12-.43.05-.57.43-.12.57.05c.14.17.12.43-.05.57Z"/>
    <path class="cls-1" d="m290.44,282.45c-.14.11-.34.1-.45-.04-.11-.14-.1-.34.04-.45.14-.11.34-.1.45.04.11.14.1.34-.04.45Z"/>
    <path class="cls-1" d="m293.12,283.18c-.09.08-.23.07-.31-.03-.08-.09-.07-.23.03-.31.09-.08.23-.07.31.03.08.09.07.23-.03.31Z"/>
    <path class="cls-1" d="m295.48,284.59s-.11.03-.14-.01c-.04-.04-.03-.11.01-.14.04-.04.11-.03.14.01.04.04.03.11-.01.14Z"/>
  </g>
  <g>
    <path class="cls-1" d="m299.57,299.98c-.09-.02-.14-.11-.11-.2.02-.09.11-.14.2-.11s.14.11.11.2c-.02.09-.11.13-.2.11Z"/>
    <path class="cls-1" d="m297.42,302.73c-.16-.04-.25-.21-.2-.36.05-.16.21-.25.36-.2s.25.21.2.36-.21.25-.36.2Z"/>
    <path class="cls-1" d="m294.67,304.82c-.22-.06-.34-.29-.28-.51s.29-.34.51-.28c.22.06.34.29.28.51s-.29.34-.51.28Z"/>
    <path class="cls-1" d="m291.5,306.11c-.27-.08-.42-.35-.34-.62.08-.27.35-.42.62-.34.27.08.42.35.34.62-.08.27-.35.42-.62.34Z"/>
    <path class="cls-1" d="m288.12,306.52c-.31-.09-.49-.41-.4-.72.09-.31.41-.49.72-.4s.49.41.4.72c-.09.31-.41.49-.72.4Z"/>
    <path class="cls-1" d="m284.79,306.03c-.34-.1-.54-.46-.45-.8s.46-.54.8-.44c.34.1.54.46.44.8s-.46.54-.8.44Z"/>
    <path class="cls-1" d="m281.71,304.68c-.38-.11-.59-.5-.49-.88.11-.38.5-.59.88-.49.38.11.59.5.49.88s-.5.59-.88.49Z"/>
    <path class="cls-1" d="m279.12,302.56c-.4-.11-.63-.53-.51-.92.11-.4.53-.63.92-.51.4.11.63.53.51.92s-.53.63-.92.51Z"/>
    <path class="cls-1" d="m277.18,299.84c-.42-.12-.66-.56-.54-.97.12-.42.56-.66.97-.54.42.12.66.56.54.97-.12.42-.56.66-.97.54Z"/>
    <path class="cls-1" d="m276.03,296.69c-.43-.12-.68-.57-.56-1s.57-.68,1-.56c.43.12.68.57.56,1s-.57.68-1,.56Z"/>
    <path class="cls-1" d="m275.76,293.35c-.44-.13-.69-.58-.56-1.02.13-.44.58-.69,1.02-.56.44.13.69.58.56,1.02-.13.44-.58.69-1.02.56Z"/>
    <path class="cls-1" d="m276.38,290.04c-.44-.13-.69-.58-.57-1.02.13-.44.58-.69,1.02-.57.44.13.69.58.57,1.02-.13.44-.58.69-1.02.57Z"/>
    <path class="cls-1" d="m277.85,287.01c-.44-.12-.69-.58-.56-1.02.13-.44.58-.69,1.02-.56.44.12.69.58.56,1.02-.12.44-.58.69-1.02.56Z"/>
    <path class="cls-1" d="m280.06,284.45c-.43-.12-.67-.57-.55-1,.12-.43.57-.67,1-.55.43.12.67.57.55,1s-.57.67-1,.55Z"/>
    <path class="cls-1" d="m282.86,282.55c-.41-.12-.65-.55-.53-.96.12-.41.55-.65.96-.53.41.12.65.55.53.96s-.55.65-.96.53Z"/>
    <path class="cls-1" d="m286.06,281.43c-.39-.11-.62-.52-.51-.91.11-.39.52-.62.91-.51.39.11.62.52.51.91-.11.39-.52.62-.91.51Z"/>
    <path class="cls-1" d="m289.43,281.19c-.37-.11-.58-.49-.48-.86.11-.37.49-.58.86-.48.37.11.58.49.48.86-.11.37-.49.58-.86.48Z"/>
    <path class="cls-1" d="m292.75,281.81c-.34-.1-.53-.45-.43-.78.1-.34.45-.53.78-.43.34.1.53.45.43.78-.1.34-.45.53-.78.43Z"/>
    <path class="cls-1" d="m295.77,283.27c-.3-.09-.48-.4-.39-.7.09-.3.4-.48.7-.39s.48.4.39.7c-.09.3-.4.48-.7.39Z"/>
    <path class="cls-1" d="m298.29,285.44c-.25-.07-.4-.34-.33-.59s.34-.4.59-.33c.25.07.4.34.33.59-.07.25-.34.4-.59.33Z"/>
    <path class="cls-1" d="m300.14,288.18c-.2-.06-.32-.27-.26-.47.06-.2.27-.32.47-.26.2.06.32.27.26.47-.06.2-.27.32-.47.26Z"/>
    <path class="cls-1" d="m301.19,291.28c-.14-.04-.22-.18-.18-.32s.18-.22.32-.18.22.18.18.32c-.04.14-.18.22-.32.18Z"/>
    <path class="cls-1" d="m301.36,294.5c-.06-.02-.1-.09-.08-.15.02-.06.08-.1.15-.08.06.02.1.08.08.15-.02.06-.09.1-.15.08Z"/>
  </g>
  <g>
    <path class="cls-1" d="m289.04,308.61c-.03-.1.02-.21.12-.24s.21.02.24.12c.03.1-.02.21-.12.24-.1.03-.21-.02-.24-.12Z"/>
    <path class="cls-1" d="m284.94,308.33c-.06-.18.04-.38.22-.44.18-.06.38.04.44.22.06.18-.04.38-.22.44-.18.06-.38-.04-.44-.22Z"/>
    <path class="cls-1" d="m281.09,307.02c-.08-.25.06-.52.31-.61.25-.08.52.06.61.31.08.25-.06.52-.31.61-.25.08-.52-.06-.61-.31Z"/>
    <path class="cls-1" d="m277.75,304.77c-.1-.31.07-.64.38-.74.31-.1.64.07.74.38s-.07.64-.38.74c-.31.1-.64-.07-.74-.38Z"/>
    <path class="cls-1" d="m275.13,301.76c-.12-.36.08-.75.44-.87.36-.12.75.08.87.44.12.36-.08.75-.44.87-.36.12-.75-.08-.87-.44Z"/>
    <path class="cls-1" d="m273.42,298.18c-.13-.4.09-.83.49-.96.4-.13.83.09.96.49.13.4-.09.83-.49.96-.4.13-.83-.09-.96-.49Z"/>
    <path class="cls-1" d="m272.71,294.29c-.14-.44.1-.91.54-1.05.44-.14.91.1,1.05.54s-.1.91-.54,1.05c-.44.14-.91-.1-1.05-.54Z"/>
    <path class="cls-1" d="m273.07,290.36c-.15-.46.1-.96.56-1.11s.96.1,1.11.56c.15.46-.1.96-.56,1.11s-.96-.1-1.11-.56Z"/>
    <path class="cls-1" d="m274.45,286.68c-.16-.49.11-1.01.59-1.17s1.01.11,1.17.59-.11,1.01-.59,1.17-1.01-.11-1.17-.59Z"/>
    <path class="cls-1" d="m276.76,283.5c-.16-.5.11-1.04.61-1.2.5-.16,1.04.11,1.2.61.16.5-.11,1.04-.61,1.2-.5.16-1.04-.11-1.2-.61Z"/>
    <path class="cls-1" d="m279.85,281.03c-.17-.51.11-1.05.62-1.22.51-.17,1.05.11,1.22.62.17.51-.11,1.05-.62,1.22-.51.17-1.05-.11-1.22-.62Z"/>
    <path class="cls-1" d="m283.48,279.47c-.17-.51.11-1.06.63-1.23.51-.17,1.06.11,1.23.63.17.51-.11,1.06-.63,1.23-.51.17-1.06-.11-1.23-.63Z"/>
    <path class="cls-1" d="m287.4,278.89c-.17-.51.11-1.05.62-1.22.51-.16,1.05.11,1.22.62.16.51-.11,1.05-.62,1.22-.51.17-1.05-.11-1.22-.62Z"/>
    <path class="cls-1" d="m291.35,279.37c-.16-.5.11-1.03.61-1.19.5-.16,1.03.11,1.19.61s-.11,1.03-.61,1.19c-.5.16-1.03-.11-1.19-.61Z"/>
    <path class="cls-1" d="m295.05,280.86c-.16-.48.11-1,.59-1.15.48-.16,1,.11,1.15.59s-.11,1-.59,1.15c-.48.16-1-.11-1.15-.59Z"/>
    <path class="cls-1" d="m298.24,283.24c-.15-.46.1-.95.56-1.09.46-.15.95.1,1.09.56.15.46-.1.95-.56,1.09-.46.15-.95-.1-1.09-.56Z"/>
    <path class="cls-1" d="m300.7,286.37c-.14-.43.1-.89.53-1.04.43-.14.89.1,1.03.53.14.43-.1.89-.53,1.03s-.89-.1-1.03-.53Z"/>
    <path class="cls-1" d="m302.27,290.01c-.13-.39.09-.81.48-.94s.81.09.94.48c.13.39-.09.81-.48.94-.39.13-.81-.09-.94-.48Z"/>
    <path class="cls-1" d="m302.83,293.92c-.11-.35.08-.73.43-.84.35-.11.73.08.84.43.11.35-.08.73-.43.84-.35.11-.73-.08-.84-.43Z"/>
    <path class="cls-1" d="m302.38,297.81c-.1-.29.07-.61.36-.71.29-.1.61.07.71.36.1.29-.07.61-.36.71-.29.1-.61-.07-.71-.36Z"/>
    <path class="cls-1" d="m300.92,301.41c-.08-.23.05-.48.29-.56.23-.08.48.05.56.29.08.23-.05.48-.29.56-.23.08-.48-.05-.56-.29Z"/>
    <path class="cls-1" d="m298.59,304.47c-.05-.16.04-.34.2-.39.16-.05.34.04.39.2.05.16-.04.34-.2.39-.16.05-.34-.04-.39-.2Z"/>
    <path class="cls-1" d="m295.56,306.76c-.02-.07.02-.15.09-.18s.15.02.18.09-.02.15-.09.18-.15-.02-.18-.09Z"/>
  </g>
  <g>
    <path class="cls-1" d="m273.69,304.02c.08-.1.22-.11.31-.04s.11.22.04.31-.22.11-.31.04c-.1-.08-.11-.22-.04-.31Z"/>
    <path class="cls-1" d="m271.27,299.84c.14-.18.39-.21.57-.07.18.14.21.39.07.57s-.39.21-.57.07c-.18-.14-.21-.39-.07-.57Z"/>
    <path class="cls-1" d="m270.02,295.22c.19-.25.55-.29.79-.1.25.19.29.55.1.79-.19.25-.55.29-.79.1-.25-.19-.29-.55-.1-.79Z"/>
    <path class="cls-1" d="m270.01,290.49c.24-.3.67-.36.97-.12s.35.67.12.97-.67.35-.97.12-.35-.67-.12-.97Z"/>
    <path class="cls-1" d="m271.23,285.95c.27-.35.78-.41,1.13-.14.35.27.41.78.14,1.13-.27.35-.78.41-1.13.14-.35-.27-.41-.78-.14-1.13Z"/>
    <path class="cls-1" d="m273.59,281.92c.31-.39.87-.46,1.26-.15.39.31.46.87.15,1.26s-.87.46-1.26.15c-.39-.31-.46-.87-.15-1.26Z"/>
    <path class="cls-1" d="m276.92,278.67c.33-.43.95-.5,1.38-.17.43.33.5.95.17,1.38s-.95.5-1.38.17c-.43-.33-.5-.95-.17-1.38Z"/>
    <path class="cls-1" d="m280.98,276.44c.35-.45,1-.53,1.45-.18.45.35.53,1,.18,1.45-.35.45-1,.53-1.45.18-.45-.35-.53-1-.18-1.45Z"/>
    <path class="cls-1" d="m285.48,275.37c.37-.47,1.05-.56,1.53-.19.47.37.56,1.05.19,1.53-.37.47-1.05.56-1.53.19-.47-.37-.56-1.05-.19-1.53Z"/>
    <path class="cls-1" d="m290.11,275.53c.38-.49,1.09-.57,1.57-.19.49.38.57,1.09.19,1.57-.38.49-1.09.57-1.57.19s-.57-1.09-.19-1.57Z"/>
    <path class="cls-1" d="m294.54,276.91c.39-.5,1.1-.58,1.6-.2.5.39.58,1.1.2,1.6-.39.5-1.1.58-1.6.2-.5-.39-.58-1.1-.2-1.6Z"/>
    <path class="cls-1" d="m298.46,279.42c.39-.5,1.11-.59,1.61-.2.5.39.59,1.11.2,1.61-.39.5-1.11.59-1.61.2-.5-.39-.59-1.11-.2-1.61Z"/>
    <path class="cls-1" d="m301.6,282.88c.39-.49,1.1-.58,1.6-.2.49.39.58,1.1.2,1.6s-1.1.58-1.6.2c-.49-.39-.58-1.1-.2-1.6Z"/>
    <path class="cls-1" d="m303.73,287.04c.38-.49,1.08-.57,1.56-.19.49.38.57,1.08.19,1.56-.38.49-1.08.57-1.56.19s-.57-1.08-.19-1.56Z"/>
    <path class="cls-1" d="m304.72,291.63c.37-.47,1.04-.55,1.51-.19.47.37.55,1.04.19,1.51-.37.47-1.04.55-1.51.19-.47-.37-.55-1.04-.19-1.51Z"/>
    <path class="cls-1" d="m304.49,296.31c.35-.44.99-.52,1.43-.18.44.35.52.99.18,1.43-.35.44-.99.52-1.43.18-.44-.35-.52-.99-.18-1.43Z"/>
    <path class="cls-1" d="m303.05,300.76c.33-.42.94-.49,1.36-.17.42.33.5.94.17,1.36-.33.42-.94.5-1.36.17-.42-.33-.5-.94-.17-1.36Z"/>
    <path class="cls-1" d="m300.54,304.69c.3-.38.85-.45,1.23-.15.38.3.45.85.15,1.23s-.85.45-1.23.15c-.38-.3-.45-.85-.15-1.23Z"/>
    <path class="cls-1" d="m297.1,307.81c.27-.34.76-.4,1.1-.14.34.27.4.76.14,1.1-.27.34-.76.4-1.1.14-.34-.27-.4-.76-.14-1.1Z"/>
    <path class="cls-1" d="m293.01,309.92c.22-.29.64-.34.93-.11.29.22.34.64.11.93-.22.29-.64.34-.93.11s-.34-.64-.11-.93Z"/>
    <path class="cls-1" d="m288.54,310.88c.18-.23.51-.27.73-.09.23.18.27.51.09.73-.18.23-.51.27-.73.09s-.27-.51-.09-.73Z"/>
    <path class="cls-1" d="m284.02,310.62c.12-.16.35-.19.51-.06.16.12.19.35.06.51-.12.16-.35.19-.51.06-.16-.12-.19-.35-.06-.51Z"/>
    <path class="cls-1" d="m279.79,309.17c.06-.07.16-.09.23-.03s.09.16.03.23c-.06.07-.16.09-.23.03-.07-.06-.09-.16-.03-.23Z"/>
  </g>
  <g>
    <path class="cls-1" d="m268.07,286.03c.14.01.25.14.24.28-.01.14-.14.25-.28.24-.14-.01-.25-.14-.24-.28.01-.14.14-.25.28-.24Z"/>
    <path class="cls-1" d="m270.56,280.93c.26.02.46.25.44.51-.02.26-.25.46-.51.44-.26-.02-.46-.25-.44-.51.02-.26.25-.46.51-.44Z"/>
    <path class="cls-1" d="m274.24,276.67c.37.03.64.34.62.71-.03.37-.34.64-.71.62-.37-.03-.64-.34-.62-.71.03-.37.34-.64.71-.62Z"/>
    <path class="cls-1" d="m278.85,273.54c.45.03.79.42.76.87-.03.45-.42.79-.87.76-.45-.03-.79-.42-.76-.87.03-.45.42-.79.87-.76Z"/>
    <path class="cls-1" d="m284.08,271.74c.52.04.92.49.88,1.01-.04.52-.49.92-1.01.88-.52-.04-.92-.49-.88-1.01.04-.52.49-.92,1.01-.88Z"/>
    <path class="cls-1" d="m289.56,271.4c.58.04,1.02.55.98,1.13-.04.58-.55,1.02-1.13.98-.58-.04-1.02-.55-.98-1.13.04-.58.55-1.02,1.13-.98Z"/>
    <path class="cls-1" d="m294.92,272.5c.64.04,1.11.6,1.07,1.23-.04.64-.6,1.11-1.23,1.07-.64-.04-1.11-.6-1.07-1.23.04-.64.6-1.11,1.23-1.07Z"/>
    <path class="cls-1" d="m299.77,275.01c.67.05,1.18.63,1.13,1.3-.05.67-.63,1.18-1.3,1.13s-1.18-.63-1.13-1.3c.05-.67.63-1.18,1.3-1.13Z"/>
    <path class="cls-1" d="m303.77,278.69c.71.05,1.24.66,1.19,1.37-.05.71-.66,1.24-1.37,1.19-.71-.05-1.24-.66-1.19-1.37.05-.71.66-1.24,1.37-1.19Z"/>
    <path class="cls-1" d="m306.66,283.31c.73.05,1.27.68,1.22,1.41-.05.73-.68,1.27-1.41,1.22-.73-.05-1.27-.68-1.22-1.41s.68-1.27,1.41-1.22Z"/>
    <path class="cls-1" d="m308.23,288.54c.74.05,1.3.69,1.24,1.43-.05.74-.69,1.29-1.43,1.24-.74-.05-1.3-.69-1.24-1.43.05-.74.69-1.3,1.43-1.24Z"/>
    <path class="cls-1" d="m308.36,294.01c.74.05,1.3.7,1.25,1.44-.05.74-.7,1.3-1.44,1.25-.74-.05-1.3-.7-1.25-1.44.05-.74.7-1.3,1.44-1.25Z"/>
    <path class="cls-1" d="m307.06,299.35c.74.05,1.29.69,1.24,1.43-.05.74-.69,1.29-1.43,1.24-.74-.05-1.29-.69-1.24-1.43.05-.74.69-1.29,1.43-1.24Z"/>
    <path class="cls-1" d="m304.4,304.17c.72.05,1.27.68,1.22,1.4-.05.72-.68,1.27-1.4,1.22-.72-.05-1.27-.68-1.22-1.4.05-.72.68-1.27,1.4-1.22Z"/>
    <path class="cls-1" d="m300.57,308.14c.7.05,1.22.65,1.17,1.35-.05.7-.65,1.22-1.35,1.17-.7-.05-1.22-.65-1.17-1.35.05-.7.65-1.22,1.35-1.17Z"/>
    <path class="cls-1" d="m295.85,311c.66.05,1.16.62,1.12,1.28-.05.66-.62,1.16-1.28,1.12-.66-.05-1.16-.62-1.12-1.28s.62-1.16,1.28-1.12Z"/>
    <path class="cls-1" d="m290.57,312.53c.63.04,1.1.59,1.05,1.21-.04.63-.59,1.1-1.21,1.05-.63-.04-1.1-.59-1.05-1.21.04-.63.59-1.1,1.21-1.05Z"/>
    <path class="cls-1" d="m285.08,312.66c.57.04,1,.53.96,1.1-.04.57-.53,1-1.1.96-.57-.04-1-.53-.96-1.1.04-.57.53-1,1.1-.96Z"/>
    <path class="cls-1" d="m279.77,311.36c.51.04.89.48.86.99-.04.51-.48.89-.99.86-.51-.04-.89-.48-.86-.99.04-.51.48-.89.99-.86Z"/>
    <path class="cls-1" d="m275.02,308.76c.43.03.75.4.72.83-.03.43-.4.75-.83.72-.43-.03-.75-.4-.72-.83s.4-.75.83-.72Z"/>
    <path class="cls-1" d="m271.15,305.02c.34.02.59.32.57.66-.02.34-.32.59-.66.57-.34-.02-.59-.32-.57-.66.02-.34.32-.59.66-.57Z"/>
    <path class="cls-1" d="m268.43,300.45c.24.02.41.22.4.46-.02.23-.22.41-.45.4-.24-.02-.41-.22-.4-.45.02-.24.22-.41.45-.4Z"/>
    <path class="cls-1" d="m267.06,295.37c.11,0,.19.1.18.21s-.1.19-.21.18c-.11,0-.19-.1-.18-.21,0-.11.1-.19.21-.18Z"/>
  </g>
  <g>
    <path class="cls-1" d="m281.92,268.72c.09.15.03.34-.11.42s-.34.03-.42-.11-.03-.34.11-.42c.15-.09.34-.03.42.11Z"/>
    <path class="cls-1" d="m288.53,267.78c.16.27.06.61-.21.77-.27.16-.61.06-.77-.21-.16-.27-.06-.61.21-.77.27-.16.61-.06.77.21Z"/>
    <path class="cls-1" d="m295.11,268.57c.22.37.09.85-.29,1.07-.37.22-.85.09-1.07-.29-.22-.37-.09-.85.29-1.07.37-.22.85-.09,1.07.29Z"/>
    <path class="cls-1" d="m301.19,271.01c.26.46.11,1.04-.35,1.31-.46.26-1.04.11-1.31-.35-.26-.46-.11-1.04.35-1.31.46-.26,1.04-.11,1.31.35Z"/>
    <path class="cls-1" d="m306.39,274.93c.31.54.13,1.22-.41,1.53-.54.31-1.22.13-1.53-.41-.31-.54-.13-1.22.41-1.53s1.22-.13,1.53.41Z"/>
    <path class="cls-1" d="m310.33,280.06c.34.59.14,1.36-.45,1.7-.6.34-1.36.14-1.7-.45-.34-.59-.14-1.36.46-1.7.59-.34,1.35-.14,1.7.46Z"/>
    <path class="cls-1" d="m312.78,286.01c.37.65.15,1.48-.5,1.85-.65.37-1.48.15-1.85-.5-.37-.65-.15-1.48.5-1.85.65-.37,1.48-.15,1.85.5Z"/>
    <path class="cls-1" d="m313.53,292.38c.4.68.16,1.56-.52,1.96-.69.4-1.56.16-1.96-.52-.4-.68-.16-1.56.52-1.96.68-.4,1.56-.16,1.96.52Z"/>
    <path class="cls-1" d="m312.57,298.71c.42.72.17,1.64-.55,2.06-.72.42-1.64.17-2.06-.55s-.17-1.64.55-2.06,1.64-.17,2.06.55Z"/>
    <path class="cls-1" d="m309.97,304.57c.43.74.17,1.69-.57,2.12-.74.43-1.69.17-2.12-.57-.43-.74-.17-1.69.57-2.12.74-.43,1.69-.17,2.12.57Z"/>
    <path class="cls-1" d="m305.89,309.54c.44.75.18,1.72-.58,2.15-.75.44-1.72.18-2.15-.58-.44-.75-.18-1.72.58-2.15.75-.44,1.72-.18,2.15.58Z"/>
    <path class="cls-1" d="m300.64,313.26c.44.76.18,1.73-.58,2.17-.76.44-1.73.18-2.17-.58-.44-.76-.18-1.73.58-2.17.76-.44,1.73-.18,2.17.58Z"/>
    <path class="cls-1" d="m294.58,315.5c.43.75.18,1.72-.58,2.15-.75.43-1.72.18-2.15-.58-.43-.75-.18-1.72.58-2.15.75-.43,1.72-.18,2.15.58Z"/>
    <path class="cls-1" d="m288.13,316.08c.43.74.17,1.68-.56,2.11-.74.43-1.68.17-2.11-.56-.43-.74-.17-1.68.56-2.11.74-.43,1.68-.17,2.11.56Z"/>
    <path class="cls-1" d="m281.74,314.96c.41.71.17,1.62-.55,2.04-.71.41-1.62.17-2.04-.55-.41-.71-.17-1.62.55-2.04.71-.41,1.62-.17,2.04.55Z"/>
    <path class="cls-1" d="m275.84,312.24c.39.68.16,1.54-.52,1.93-.68.39-1.54.16-1.93-.52s-.16-1.54.52-1.93,1.54-.16,1.93.52Z"/>
    <path class="cls-1" d="m270.88,308.09c.37.64.15,1.46-.49,1.83-.64.37-1.46.15-1.83-.49-.37-.64-.15-1.46.49-1.83s1.46-.15,1.83.49Z"/>
    <path class="cls-1" d="m267.14,302.82c.33.58.14,1.32-.44,1.66-.58.33-1.32.14-1.66-.44s-.14-1.32.44-1.66c.58-.33,1.32-.14,1.66.44Z"/>
    <path class="cls-1" d="m264.91,296.8c.3.52.12,1.18-.4,1.48s-1.18.12-1.48-.4c-.3-.52-.12-1.18.4-1.48s1.18-.12,1.48.4Z"/>
    <path class="cls-1" d="m264.33,290.45c.25.44.1,1-.33,1.25-.44.25-.99.1-1.25-.33-.25-.44-.1-.99.33-1.25.44-.25.99-.1,1.25.33Z"/>
    <path class="cls-1" d="m265.43,284.22c.2.35.08.79-.26.99s-.79.08-.99-.26c-.2-.35-.08-.79.26-.99.35-.2.79-.08.99.26Z"/>
    <path class="cls-1" d="m268.1,278.56c.14.24.06.55-.18.69-.24.14-.55.06-.69-.18-.14-.24-.06-.55.18-.69.24-.14.55-.06.69.18Z"/>
    <path class="cls-1" d="m272.15,273.87c.06.11.03.25-.08.32-.11.06-.25.03-.32-.08s-.03-.25.08-.32c.11-.06.25-.03.32.08Z"/>
  </g>
  <g>
    <path class="cls-1" d="m307.92,270.83c-.09.18-.31.26-.49.17-.18-.09-.26-.31-.17-.49.09-.18.31-.26.49-.17.18.09.26.31.17.49Z"/>
    <path class="cls-1" d="m313.18,276.67c-.16.33-.56.47-.89.31-.33-.16-.47-.56-.31-.89.16-.33.56-.47.89-.3.33.16.47.56.31.89Z"/>
    <path class="cls-1" d="m316.74,283.61c-.22.46-.77.65-1.23.42-.46-.22-.65-.77-.42-1.23.22-.46.77-.65,1.23-.42.46.22.65.77.42,1.23Z"/>
    <path class="cls-1" d="m318.36,291.15c-.27.56-.95.79-1.51.52-.56-.27-.79-.95-.52-1.51.27-.56.95-.79,1.51-.52.56.27.79.95.52,1.51Z"/>
    <path class="cls-1" d="m317.96,298.79c-.32.65-1.11.92-1.76.61-.65-.32-.92-1.11-.61-1.76.32-.65,1.11-.92,1.76-.61.65.32.92,1.11.61,1.76Z"/>
    <path class="cls-1" d="m315.55,306.01c-.35.73-1.23,1.03-1.96.67-.73-.35-1.03-1.23-.67-1.96.35-.73,1.23-1.03,1.96-.67.73.35,1.03,1.23.67,1.96Z"/>
    <path class="cls-1" d="m311.36,312.31c-.39.79-1.34,1.12-2.13.74-.79-.39-1.12-1.34-.74-2.13.39-.79,1.34-1.12,2.13-.74.79.39,1.12,1.34.73,2.13Z"/>
    <path class="cls-1" d="m305.63,317.23c-.41.84-1.42,1.18-2.25.78-.84-.41-1.18-1.42-.78-2.25.41-.84,1.42-1.18,2.25-.78.84.41,1.18,1.42.78,2.25Z"/>
    <path class="cls-1" d="m298.83,320.46c-.43.88-1.49,1.25-2.37.82-.88-.43-1.25-1.49-.82-2.37s1.49-1.25,2.37-.82c.88.43,1.25,1.49.82,2.37Z"/>
    <path class="cls-1" d="m291.4,321.78c-.44.91-1.53,1.28-2.44.84-.91-.44-1.28-1.53-.84-2.44.44-.91,1.53-1.28,2.44-.84.91.44,1.28,1.53.84,2.44Z"/>
    <path class="cls-1" d="m283.88,321.07c-.45.92-1.56,1.3-2.48.85s-1.3-1.56-.85-2.48c.45-.92,1.56-1.3,2.48-.85.92.45,1.3,1.56.85,2.48Z"/>
    <path class="cls-1" d="m276.79,318.4c-.45.93-1.57,1.31-2.5.86-.93-.45-1.31-1.57-.86-2.5s1.57-1.31,2.5-.86c.93.45,1.31,1.57.86,2.5Z"/>
    <path class="cls-1" d="m270.62,313.96c-.45.92-1.56,1.3-2.48.85s-1.3-1.56-.85-2.48c.45-.92,1.56-1.3,2.48-.85.92.45,1.3,1.56.85,2.48Z"/>
    <path class="cls-1" d="m265.81,308.05c-.44.9-1.53,1.28-2.43.84-.9-.44-1.28-1.53-.84-2.43.44-.9,1.53-1.28,2.43-.84.9.44,1.28,1.53.84,2.43Z"/>
    <path class="cls-1" d="m262.7,301.08c-.42.87-1.47,1.23-2.34.81-.87-.42-1.23-1.47-.81-2.34s1.47-1.23,2.34-.81,1.23,1.47.81,2.34Z"/>
    <path class="cls-1" d="m261.47,293.55c-.4.83-1.4,1.17-2.22.77-.83-.4-1.17-1.4-.77-2.22.4-.83,1.4-1.17,2.22-.77s1.17,1.4.77,2.22Z"/>
    <path class="cls-1" d="m262.25,285.97c-.38.78-1.32,1.11-2.1.72-.78-.38-1.11-1.32-.72-2.1.38-.78,1.32-1.11,2.1-.72.78.38,1.11,1.32.72,2.1Z"/>
    <path class="cls-1" d="m264.93,278.86c-.35.71-1.2,1-1.91.66-.71-.35-1-1.2-.66-1.91.35-.71,1.2-1,1.91-.66.71.35,1,1.2.66,1.91Z"/>
    <path class="cls-1" d="m269.35,272.72c-.31.63-1.07.9-1.71.59-.63-.31-.9-1.07-.59-1.71.31-.63,1.07-.9,1.71-.59.63.31.9,1.07.59,1.71Z"/>
    <path class="cls-1" d="m275.15,267.97c-.26.53-.9.75-1.44.49-.53-.26-.75-.9-.49-1.44.26-.53.9-.75,1.44-.49.53.26.75.9.49,1.44Z"/>
    <path class="cls-1" d="m281.95,264.95c-.21.42-.72.6-1.14.39-.42-.21-.6-.72-.39-1.14.21-.42.72-.6,1.14-.39.42.21.6.72.39,1.14Z"/>
    <path class="cls-1" d="m289.23,263.83c-.14.29-.5.41-.79.27-.29-.14-.41-.5-.27-.79.14-.29.5-.41.79-.27.29.14.41.5.27.79Z"/>
    <path class="cls-1" d="m296.46,264.7c-.07.13-.23.19-.36.13s-.19-.23-.13-.36c.07-.13.23-.19.36-.12.13.07.19.23.12.36Z"/>
  </g>
  <g>
    <path class="cls-1" d="m322.96,297.58c-.23.03-.45-.13-.48-.36-.03-.23.13-.45.36-.48.23-.03.45.13.48.36.03.23-.13.45-.36.48Z"/>
    <path class="cls-1" d="m320.73,306.56c-.43.06-.82-.24-.88-.66-.06-.43.24-.82.66-.88.43-.06.82.24.88.66.06.43-.24.82-.66.88Z"/>
    <path class="cls-1" d="m316.31,314.59c-.59.08-1.14-.33-1.22-.92-.08-.59.33-1.14.92-1.22.59-.08,1.14.33,1.22.92.08.59-.33,1.14-.92,1.22Z"/>
    <path class="cls-1" d="m310.02,321.13c-.73.1-1.4-.4-1.5-1.13-.1-.73.4-1.4,1.13-1.5.73-.1,1.4.4,1.5,1.13.1.73-.4,1.4-1.13,1.5Z"/>
    <path class="cls-1" d="m302.3,325.77c-.85.12-1.63-.47-1.75-1.32-.12-.85.47-1.63,1.32-1.75.85-.12,1.63.47,1.75,1.32.12.85-.47,1.63-1.32,1.75Z"/>
    <path class="cls-1" d="m293.68,328.17c-.94.13-1.81-.52-1.94-1.46s.52-1.81,1.46-1.94,1.81.52,1.94,1.46-.52,1.81-1.46,1.94Z"/>
    <path class="cls-1" d="m284.77,328.22c-1.03.14-1.98-.57-2.12-1.6-.14-1.03.57-1.98,1.6-2.12,1.03-.14,1.98.57,2.12,1.6.14,1.03-.57,1.98-1.6,2.12Z"/>
    <path class="cls-1" d="m276.2,325.88c-1.08.15-2.09-.6-2.24-1.69-.15-1.08.6-2.09,1.69-2.24,1.08-.15,2.09.6,2.24,1.69.15,1.08-.6,2.09-1.69,2.24Z"/>
    <path class="cls-1" d="m268.58,321.38c-1.14.16-2.2-.63-2.36-1.78-.16-1.14.63-2.2,1.78-2.36,1.14-.16,2.2.63,2.36,1.78.16,1.14-.63,2.2-1.78,2.36Z"/>
    <path class="cls-1" d="m262.41,314.99c-1.17.17-2.26-.65-2.43-1.83s.65-2.26,1.83-2.43c1.17-.17,2.26.65,2.43,1.83.17,1.17-.65,2.26-1.83,2.43Z"/>
    <path class="cls-1" d="m258.14,307.19c-1.19.17-2.3-.66-2.46-1.86s.66-2.3,1.86-2.46c1.19-.17,2.3.66,2.46,1.86.17,1.19-.66,2.3-1.86,2.46Z"/>
    <path class="cls-1" d="m256.09,298.52c-1.2.17-2.31-.67-2.48-1.87s.67-2.31,1.87-2.48c1.2-.17,2.31.67,2.48,1.87.17,1.2-.67,2.31-1.87,2.48Z"/>
    <path class="cls-1" d="m256.35,289.58c-1.19.17-2.29-.66-2.46-1.85-.17-1.19.66-2.29,1.85-2.46,1.19-.17,2.29.66,2.46,1.85.17,1.19-.66,2.29-1.85,2.46Z"/>
    <path class="cls-1" d="m258.96,281c-1.17.16-2.25-.65-2.41-1.82-.16-1.17.65-2.25,1.82-2.41,1.17-.16,2.25.65,2.41,1.82.16,1.17-.65,2.25-1.82,2.41Z"/>
    <path class="cls-1" d="m263.7,273.38c-1.13.16-2.17-.63-2.33-1.75-.16-1.13.63-2.17,1.75-2.33,1.13-.16,2.17.63,2.33,1.76.16,1.13-.63,2.17-1.76,2.33Z"/>
    <path class="cls-1" d="m270.25,267.22c-1.07.15-2.06-.6-2.21-1.67-.15-1.07.59-2.06,1.67-2.21,1.07-.15,2.06.6,2.21,1.67s-.6,2.06-1.67,2.21Z"/>
    <path class="cls-1" d="m278.15,263c-1.01.14-1.95-.56-2.09-1.58-.14-1.01.56-1.95,1.58-2.09,1.01-.14,1.95.56,2.09,1.58.14,1.01-.56,1.95-1.58,2.09Z"/>
    <path class="cls-1" d="m286.85,260.94c-.92.13-1.77-.51-1.89-1.43s.51-1.77,1.43-1.89c.92-.13,1.77.51,1.89,1.43.13.92-.51,1.77-1.43,1.89Z"/>
    <path class="cls-1" d="m295.74,261.21c-.82.12-1.58-.46-1.7-1.28-.12-.82.46-1.58,1.28-1.7.82-.12,1.58.46,1.7,1.28s-.46,1.58-1.28,1.7Z"/>
    <path class="cls-1" d="m304.19,263.74c-.69.1-1.33-.38-1.43-1.08-.1-.69.38-1.33,1.08-1.43.69-.1,1.33.38,1.43,1.07.1.69-.38,1.33-1.08,1.43Z"/>
    <path class="cls-1" d="m311.61,268.38c-.55.08-1.05-.3-1.13-.85-.08-.55.3-1.05.85-1.13.55-.08,1.05.3,1.13.85.08.55-.3,1.05-.85,1.13Z"/>
    <path class="cls-1" d="m317.5,274.75c-.38.05-.73-.21-.78-.59-.05-.38.21-.73.59-.78.38-.05.73.21.78.59.05.38-.21.73-.59.78Z"/>
    <path class="cls-1" d="m321.41,282.38c-.17.02-.34-.1-.36-.27s.1-.34.27-.36.34.1.36.27c.02.17-.1.34-.27.36Z"/>
  </g>
  <g>
    <path class="cls-1" d="m306.76,329.85c-.19-.21-.17-.52.04-.71.21-.19.53-.17.71.04.19.21.17.52-.04.71-.21.19-.52.17-.71-.04Z"/>
    <path class="cls-1" d="m296.54,333.58c-.34-.38-.31-.96.07-1.29.38-.34.96-.31,1.29.07.34.38.31.96-.07,1.29s-.96.31-1.29-.07Z"/>
    <path class="cls-1" d="m285.8,334.55c-.47-.52-.43-1.33.09-1.8.52-.47,1.33-.43,1.8.09.47.52.43,1.33-.09,1.8-.52.47-1.33.43-1.8-.09Z"/>
    <path class="cls-1" d="m275.28,332.72c-.58-.64-.53-1.63.12-2.2.64-.58,1.63-.52,2.2.12.58.64.53,1.63-.12,2.2-.64.58-1.63.53-2.2-.12Z"/>
    <path class="cls-1" d="m265.68,328.24c-.67-.75-.61-1.9.13-2.57.75-.67,1.9-.61,2.57.13.67.75.61,1.9-.13,2.57-.75.67-1.9.61-2.57-.13Z"/>
    <path class="cls-1" d="m257.67,321.41c-.75-.83-.68-2.11.15-2.86s2.11-.68,2.86.15.68,2.11-.15,2.86c-.83.75-2.11.68-2.86-.15Z"/>
    <path class="cls-1" d="m251.76,312.77c-.82-.91-.74-2.3.16-3.12.91-.82,2.3-.74,3.12.16.82.91.74,2.3-.16,3.12-.91.82-2.3.74-3.12-.16Z"/>
    <path class="cls-1" d="m248.41,302.87c-.86-.96-.78-2.43.17-3.29.96-.86,2.43-.78,3.29.17.86.96.78,2.43-.17,3.29-.96.86-2.43.78-3.29-.17Z"/>
    <path class="cls-1" d="m247.78,292.46c-.91-1.01-.83-2.56.18-3.47,1.01-.91,2.56-.83,3.47.18.91,1.01.83,2.56-.18,3.47-1.01.91-2.56.83-3.47-.18Z"/>
    <path class="cls-1" d="m249.95,282.25c-.93-1.04-.85-2.63.19-3.57s2.63-.85,3.57.19.85,2.63-.19,3.57c-1.04.93-2.63.85-3.57-.19Z"/>
    <path class="cls-1" d="m254.75,272.96c-.95-1.05-.86-2.68.19-3.63,1.05-.95,2.68-.86,3.63.19.95,1.05.86,2.68-.19,3.63s-2.68.86-3.63-.19Z"/>
    <path class="cls-1" d="m261.86,265.24c-.95-1.06-.87-2.69.19-3.65,1.06-.95,2.69-.87,3.65.19.95,1.06.87,2.69-.19,3.65-1.06.95-2.69.87-3.65-.19Z"/>
    <path class="cls-1" d="m270.75,259.63c-.95-1.05-.86-2.67.19-3.62,1.05-.95,2.67-.86,3.62.19.95,1.05.86,2.67-.19,3.62s-2.67.86-3.62-.19Z"/>
    <path class="cls-1" d="m280.83,256.53c-.93-1.03-.85-2.62.19-3.55,1.03-.93,2.62-.85,3.55.19.93,1.03.85,2.62-.19,3.55-1.03.93-2.62.85-3.55-.19Z"/>
    <path class="cls-1" d="m291.39,256.14c-.9-1-.82-2.53.18-3.43s2.53-.82,3.43.18c.9,1,.82,2.53-.18,3.43-1,.9-2.53.82-3.43-.18Z"/>
    <path class="cls-1" d="m301.7,258.47c-.85-.94-.77-2.4.17-3.25.95-.85,2.4-.77,3.25.17.85.94.77,2.4-.17,3.25-.95.85-2.4.77-3.25-.17Z"/>
    <path class="cls-1" d="m311.02,263.4c-.8-.89-.73-2.27.16-3.08.89-.8,2.27-.73,3.08.16.8.89.73,2.27-.16,3.08s-2.27.73-3.08-.16Z"/>
    <path class="cls-1" d="m318.75,270.53c-.73-.81-.66-2.06.15-2.79s2.06-.66,2.79.15.66,2.06-.15,2.79-2.06.66-2.79-.15Z"/>
    <path class="cls-1" d="m324.34,279.38c-.65-.73-.6-1.84.13-2.5.73-.65,1.84-.6,2.5.13.65.73.6,1.84-.13,2.5-.73.65-1.84.6-2.5-.13Z"/>
    <path class="cls-1" d="m327.42,289.28c-.55-.61-.5-1.55.11-2.1.61-.55,1.55-.5,2.1.11.55.61.5,1.55-.11,2.1-.61.55-1.55.5-2.1-.11Z"/>
    <path class="cls-1" d="m327.78,299.58c-.44-.48-.4-1.23.09-1.66.48-.44,1.23-.4,1.66.09.44.48.4,1.23-.09,1.66-.48.44-1.23.4-1.66-.09Z"/>
    <path class="cls-1" d="m325.44,309.51c-.3-.34-.27-.85.06-1.15.34-.3.85-.27,1.15.06.3.34.27.85-.06,1.15-.33.3-.85.27-1.15-.06Z"/>
    <path class="cls-1" d="m320.57,318.34c-.14-.15-.13-.39.03-.53.15-.14.39-.13.53.03.14.15.13.39-.03.53-.15.14-.39.13-.53-.03Z"/>
  </g>
  <g>
    <path class="cls-1" d="m264.64,335.28c.08-.32.4-.51.72-.43.32.08.51.4.43.72-.08.32-.4.51-.72.43-.32-.08-.51-.4-.43-.72Z"/>
    <path class="cls-1" d="m254.27,327.77c.14-.58.73-.93,1.31-.79.58.14.93.73.79,1.31-.14.58-.73.93-1.31.79-.58-.14-.93-.73-.79-1.31Z"/>
    <path class="cls-1" d="m246.26,317.93c.2-.8,1.01-1.29,1.82-1.09.8.2,1.29,1.01,1.09,1.82-.2.8-1.01,1.29-1.82,1.09-.8-.2-1.29-1.01-1.09-1.82Z"/>
    <path class="cls-1" d="m241.13,306.47c.25-.98,1.24-1.58,2.23-1.34.98.25,1.58,1.24,1.34,2.23-.25.98-1.24,1.58-2.23,1.34-.98-.25-1.58-1.24-1.34-2.23Z"/>
    <path class="cls-1" d="m239.18,294.15c.29-1.15,1.45-1.85,2.6-1.56,1.15.29,1.85,1.45,1.56,2.6-.29,1.15-1.45,1.85-2.6,1.56-1.15-.29-1.85-1.45-1.56-2.6Z"/>
    <path class="cls-1" d="m240.57,281.85c.32-1.28,1.61-2.05,2.89-1.73,1.28.32,2.05,1.61,1.73,2.89s-1.61,2.05-2.89,1.73c-1.28-.32-2.05-1.61-1.73-2.89Z"/>
    <path class="cls-1" d="m245.11,270.4c.35-1.39,1.76-2.24,3.15-1.89s2.24,1.76,1.89,3.15c-.35,1.39-1.76,2.24-3.15,1.89-1.39-.35-2.24-1.76-1.89-3.15Z"/>
    <path class="cls-1" d="m252.56,260.61c.37-1.47,1.86-2.36,3.33-2,1.47.37,2.36,1.86,2,3.33s-1.86,2.36-3.33,2c-1.47-.37-2.36-1.86-2-3.33Z"/>
    <path class="cls-1" d="m262.3,253.16c.39-1.55,1.95-2.49,3.5-2.1,1.55.39,2.49,1.95,2.1,3.5-.39,1.55-1.95,2.49-3.5,2.1-1.55-.39-2.49-1.95-2.1-3.5Z"/>
    <path class="cls-1" d="m273.69,248.55c.4-1.59,2.01-2.56,3.6-2.16s2.56,2.01,2.17,3.6c-.4,1.59-2.01,2.56-3.6,2.16-1.59-.4-2.56-2.01-2.17-3.6Z"/>
    <path class="cls-1" d="m285.91,247.13c.4-1.62,2.04-2.6,3.66-2.2,1.62.4,2.6,2.04,2.2,3.66-.4,1.62-2.04,2.6-3.66,2.2-1.62-.4-2.6-2.04-2.2-3.66Z"/>
    <path class="cls-1" d="m298.11,248.98c.41-1.63,2.06-2.62,3.68-2.21s2.62,2.06,2.21,3.68-2.06,2.62-3.68,2.21c-1.63-.41-2.62-2.06-2.21-3.68Z"/>
    <path class="cls-1" d="m309.44,253.96c.4-1.62,2.04-2.6,3.65-2.2s2.6,2.04,2.2,3.65c-.4,1.62-2.04,2.6-3.65,2.2-1.62-.4-2.6-2.04-2.2-3.65Z"/>
    <path class="cls-1" d="m319.09,261.75c.39-1.58,2-2.55,3.58-2.15,1.58.39,2.55,2,2.15,3.58-.39,1.58-2,2.55-3.58,2.15-1.58-.39-2.55-2-2.15-3.58Z"/>
    <path class="cls-1" d="m326.42,271.79c.38-1.53,1.93-2.46,3.46-2.08,1.53.38,2.46,1.93,2.08,3.46-.38,1.53-1.93,2.46-3.46,2.08-1.53-.38-2.46-1.93-2.08-3.46Z"/>
    <path class="cls-1" d="m330.93,283.39c.36-1.45,1.83-2.33,3.28-1.97,1.45.36,2.33,1.83,1.97,3.28-.36,1.45-1.83,2.33-3.28,1.97-1.45-.36-2.33-1.83-1.97-3.28Z"/>
    <path class="cls-1" d="m332.25,295.72c.34-1.37,1.73-2.21,3.11-1.87,1.37.34,2.21,1.73,1.87,3.11-.34,1.37-1.73,2.21-3.11,1.87-1.37-.34-2.21-1.73-1.87-3.11Z"/>
    <path class="cls-1" d="m330.39,307.95c.31-1.24,1.57-2,2.81-1.69,1.24.31,2,1.57,1.69,2.81-.31,1.24-1.57,2-2.81,1.69-1.24-.31-2-1.57-1.69-2.81Z"/>
    <path class="cls-1" d="m325.43,319.22c.28-1.12,1.41-1.79,2.52-1.52,1.12.28,1.79,1.41,1.52,2.52-.28,1.12-1.41,1.79-2.52,1.52-1.12-.28-1.79-1.41-1.52-2.52Z"/>
    <path class="cls-1" d="m317.79,328.75c.23-.94,1.18-1.51,2.12-1.27s1.51,1.18,1.27,2.12-1.18,1.51-2.12,1.27c-.94-.23-1.51-1.18-1.27-2.12Z"/>
    <path class="cls-1" d="m307.99,335.87c.19-.74.94-1.19,1.68-1.01.74.19,1.19.94,1.01,1.68-.19.74-.94,1.19-1.68,1.01-.74-.19-1.19-.94-1.01-1.68Z"/>
    <path class="cls-1" d="m296.76,340.11c.13-.51.65-.83,1.17-.7.51.13.83.65.7,1.17-.13.52-.65.83-1.17.7-.51-.13-.83-.65-.7-1.17Z"/>
    <path class="cls-1" d="m284.95,341.18c.06-.24.3-.38.54-.32.24.06.38.3.32.54-.06.24-.3.38-.54.32-.24-.06-.38-.3-.32-.54Z"/>
  </g>
  <g>
    <path class="cls-1" d="m231.63,297.77c.36-.13.76.05.89.42.13.36-.05.76-.42.89-.36.13-.76-.05-.89-.42-.13-.36.05-.76.42-.89Z"/>
    <path class="cls-1" d="m232.14,282.72c.66-.24,1.39.1,1.63.76.24.66-.1,1.39-.76,1.63-.66.24-1.39-.1-1.63-.76-.24-.66.1-1.39.76-1.63Z"/>
    <path class="cls-1" d="m236.46,268.43c.92-.33,1.93.14,2.26,1.06.33.92-.14,1.93-1.06,2.26-.92.33-1.93-.14-2.26-1.06s.14-1.93,1.06-2.26Z"/>
    <path class="cls-1" d="m244.26,255.88c1.12-.41,2.36.17,2.77,1.29.41,1.12-.17,2.36-1.29,2.77-1.12.41-2.36-.17-2.77-1.29-.41-1.12.17-2.36,1.29-2.77Z"/>
    <path class="cls-1" d="m254.99,245.88c1.31-.48,2.76.2,3.23,1.51.48,1.31-.2,2.76-1.51,3.23-1.31.48-2.76-.2-3.23-1.51-.48-1.31.2-2.76,1.51-3.23Z"/>
    <path class="cls-1" d="m267.91,239.14c1.45-.53,3.06.22,3.59,1.67.53,1.45-.22,3.06-1.67,3.59-1.45.53-3.06-.22-3.59-1.67-.53-1.45.22-3.06,1.67-3.59Z"/>
    <path class="cls-1" d="m282.07,236.04c1.59-.58,3.34.24,3.92,1.83s-.24,3.34-1.83,3.92c-1.59.58-3.34-.24-3.92-1.83-.58-1.59.24-3.34,1.83-3.92Z"/>
    <path class="cls-1" d="m296.51,236.87c1.67-.61,3.53.25,4.14,1.93.61,1.67-.25,3.53-1.93,4.14-1.67.61-3.53-.25-4.14-1.93-.61-1.67.25-3.53,1.93-4.14Z"/>
    <path class="cls-1" d="m310.19,241.47c1.76-.64,3.71.27,4.35,2.03.64,1.76-.27,3.71-2.03,4.35s-3.71-.27-4.35-2.03c-.64-1.76.27-3.71,2.03-4.35Z"/>
    <path class="cls-1" d="m322.17,249.54c1.81-.66,3.82.28,4.48,2.09.66,1.81-.28,3.82-2.09,4.48-1.81.66-3.82-.27-4.48-2.09s.28-3.82,2.09-4.48Z"/>
    <path class="cls-1" d="m331.6,260.53c1.84-.67,3.88.28,4.55,2.12.67,1.84-.28,3.88-2.12,4.55-1.84.67-3.88-.28-4.55-2.12-.67-1.84.28-3.88,2.12-4.55Z"/>
    <path class="cls-1" d="m337.82,273.64c1.86-.68,3.91.28,4.58,2.14.68,1.86-.28,3.91-2.14,4.58-1.86.68-3.91-.28-4.58-2.14-.68-1.86.28-3.91,2.14-4.58Z"/>
    <path class="cls-1" d="m340.41,287.97c1.84-.67,3.88.28,4.55,2.12s-.28,3.88-2.12,4.55c-1.84.67-3.88-.28-4.55-2.12-.67-1.84.28-3.88,2.12-4.55Z"/>
    <path class="cls-1" d="m339.17,302.51c1.8-.66,3.8.27,4.46,2.08.66,1.8-.27,3.8-2.08,4.46-1.8.66-3.8-.27-4.46-2.08-.66-1.8.27-3.8,2.08-4.46Z"/>
    <path class="cls-1" d="m334.19,316.26c1.74-.63,3.67.26,4.3,2.01s-.26,3.67-2.01,4.3c-1.74.63-3.67-.26-4.3-2.01-.63-1.74.26-3.67,2.01-4.3Z"/>
    <path class="cls-1" d="m325.85,328.29c1.65-.6,3.48.25,4.08,1.9s-.25,3.48-1.9,4.08c-1.65.6-3.48-.25-4.08-1.9-.6-1.65.25-3.48,1.9-4.08Z"/>
    <path class="cls-1" d="m314.69,337.68c1.56-.57,3.29.24,3.86,1.8s-.24,3.29-1.8,3.86c-1.56.57-3.29-.24-3.86-1.8-.57-1.56.24-3.29,1.8-3.86Z"/>
    <path class="cls-1" d="m301.54,343.92c1.42-.52,2.99.21,3.5,1.63.52,1.42-.21,2.98-1.63,3.5-1.42.52-2.98-.21-3.5-1.63-.52-1.42.21-2.98,1.63-3.5Z"/>
    <path class="cls-1" d="m287.29,346.5c1.27-.46,2.68.19,3.14,1.46.46,1.27-.19,2.68-1.46,3.14-1.27.46-2.68-.19-3.14-1.46-.46-1.27.19-2.68,1.46-3.14Z"/>
    <path class="cls-1" d="m272.97,345.32c1.07-.39,2.25.16,2.64,1.23.39,1.07-.16,2.25-1.23,2.64-1.07.39-2.25-.16-2.64-1.23-.39-1.07.16-2.25,1.23-2.64Z"/>
    <path class="cls-1" d="m259.58,340.44c.85-.31,1.78.13,2.09.97s-.13,1.78-.97,2.09-1.78-.13-2.09-.97.13-1.78.97-2.09Z"/>
    <path class="cls-1" d="m248.05,332.28c.59-.21,1.24.09,1.45.68.21.59-.09,1.24-.68,1.45-.59.21-1.24-.09-1.45-.68-.21-.59.09-1.24.68-1.45Z"/>
    <path class="cls-1" d="m239.24,321.47c.27-.1.57.04.67.31.1.27-.04.57-.31.67-.27.1-.57-.04-.67-.31-.1-.27.04-.57.31-.67Z"/>
  </g>
  <g>
    <path class="cls-1" d="m246.5,240.9c.37.27.45.78.18,1.14-.27.37-.78.45-1.14.18-.37-.27-.45-.78-.18-1.14.27-.37.78-.45,1.14-.18Z"/>
    <path class="cls-1" d="m261.51,231.49c.67.48.81,1.42.33,2.09-.48.67-1.42.81-2.09.33-.67-.48-.81-1.42-.33-2.09.48-.67,1.42-.81,2.09-.33Z"/>
    <path class="cls-1" d="m278.29,226.3c.93.67,1.13,1.97.46,2.9-.67.93-1.97,1.13-2.9.46-.93-.67-1.13-1.97-.46-2.9s1.97-1.13,2.9-.46Z"/>
    <path class="cls-1" d="m295.66,225.66c1.14.83,1.39,2.41.56,3.55-.82,1.14-2.41,1.39-3.55.56-1.14-.83-1.39-2.41-.56-3.55.82-1.14,2.41-1.39,3.55-.56Z"/>
    <path class="cls-1" d="m312.48,229.55c1.33.96,1.62,2.82.66,4.14-.96,1.33-2.82,1.62-4.14.66-1.33-.96-1.62-2.82-.66-4.14.96-1.33,2.82-1.62,4.14-.66Z"/>
    <path class="cls-1" d="m327.54,237.71c1.47,1.07,1.8,3.13.73,4.6-1.07,1.47-3.13,1.8-4.6.73-1.47-1.07-1.8-3.13-.73-4.6,1.07-1.47,3.13-1.8,4.6-.73Z"/>
    <path class="cls-1" d="m339.89,249.48c1.61,1.17,1.96,3.42.8,5.03-1.17,1.61-3.42,1.96-5.03.8-1.61-1.17-1.96-3.42-.8-5.03,1.17-1.61,3.42-1.96,5.03-.8Z"/>
    <path class="cls-1" d="m348.58,264.12c1.7,1.23,2.07,3.61.84,5.3-1.23,1.7-3.61,2.07-5.3.84-1.7-1.23-2.07-3.61-.84-5.3,1.23-1.7,3.61-2.07,5.3-.84Z"/>
    <path class="cls-1" d="m353.09,280.48c1.79,1.3,2.18,3.8.88,5.58-1.3,1.79-3.8,2.18-5.58.88-1.79-1.3-2.18-3.8-.88-5.58,1.3-1.79,3.8-2.18,5.58-.88Z"/>
    <path class="cls-1" d="m353.1,297.48c1.84,1.34,2.25,3.91.91,5.75-1.34,1.84-3.91,2.25-5.75.91-1.84-1.34-2.25-3.91-.91-5.75,1.34-1.84,3.91-2.25,5.75-.91Z"/>
    <path class="cls-1" d="m348.59,313.91c1.87,1.36,2.28,3.97.92,5.84s-3.97,2.28-5.84.92c-1.87-1.36-2.28-3.97-.92-5.84,1.36-1.87,3.97-2.28,5.84-.92Z"/>
    <path class="cls-1" d="m339.89,328.59c1.88,1.37,2.3,4,.93,5.88-1.37,1.88-4,2.3-5.88.93-1.88-1.37-2.3-4-.93-5.88,1.37-1.88,4-2.3,5.88-.93Z"/>
    <path class="cls-1" d="m327.62,340.55c1.86,1.35,2.28,3.96.92,5.83-1.35,1.86-3.96,2.28-5.83.92-1.86-1.35-2.28-3.96-.92-5.83,1.35-1.86,3.96-2.28,5.83-.92Z"/>
    <path class="cls-1" d="m312.62,348.91c1.83,1.33,2.23,3.89.91,5.71-1.33,1.83-3.89,2.23-5.71.91-1.83-1.33-2.23-3.89-.91-5.71,1.33-1.83,3.89-2.23,5.71-.91Z"/>
    <path class="cls-1" d="m295.94,353.1c1.76,1.28,2.16,3.75.87,5.52-1.28,1.76-3.75,2.16-5.52.87-1.76-1.28-2.16-3.75-.87-5.52,1.28-1.76,3.75-2.16,5.52-.87Z"/>
    <path class="cls-1" d="m278.72,352.87c1.68,1.22,2.05,3.56.83,5.24-1.22,1.68-3.56,2.05-5.24.83-1.68-1.22-2.05-3.56-.83-5.24,1.22-1.68,3.56-2.05,5.24-.83Z"/>
    <path class="cls-1" d="m262.21,348.17c1.58,1.15,1.94,3.37.78,4.95-1.15,1.58-3.37,1.94-4.95.78-1.58-1.15-1.94-3.37-.78-4.95,1.15-1.58,3.37-1.94,4.95-.78Z"/>
    <path class="cls-1" d="m247.48,339.44c1.44,1.04,1.75,3.05.71,4.49-1.04,1.44-3.05,1.75-4.49.71-1.44-1.04-1.75-3.05-.71-4.49,1.04-1.44,3.05-1.75,4.49-.71Z"/>
    <path class="cls-1" d="m235.59,327.24c1.29.94,1.57,2.74.64,4.02-.94,1.29-2.74,1.57-4.02.64-1.29-.94-1.57-2.74-.64-4.02.94-1.29,2.74-1.57,4.02-.64Z"/>
    <path class="cls-1" d="m227.32,312.5c1.08.79,1.32,2.3.54,3.38-.79,1.08-2.3,1.32-3.38.54-1.08-.79-1.32-2.3-.54-3.38.79-1.08,2.3-1.32,3.38-.54Z"/>
    <path class="cls-1" d="m223.27,296.23c.86.62,1.05,1.82.42,2.68s-1.82,1.05-2.68.42c-.86-.62-1.05-1.82-.42-2.68.62-.86,1.82-1.05,2.68-.42Z"/>
    <path class="cls-1" d="m223.64,279.62c.59.43.73,1.26.29,1.86-.43.59-1.26.73-1.86.29-.59-.43-.73-1.26-.29-1.86s1.26-.73,1.86-.29Z"/>
    <path class="cls-1" d="m228.4,263.91c.27.2.33.58.14.85s-.58.33-.86.14c-.27-.2-.33-.58-.14-.85s.58-.33.85-.14Z"/>
  </g>
  <g>
    <path class="cls-1" d="m311.75,217.98c-.02.53-.47.95-1,.93-.53-.02-.95-.47-.93-1s.46-.95,1-.93c.53.02.95.46.93,1Z"/>
    <path class="cls-1" d="m330.8,226.44c-.03.97-.85,1.73-1.82,1.69-.97-.03-1.73-.85-1.69-1.82.03-.97.85-1.73,1.82-1.69.97.03,1.73.85,1.69,1.82Z"/>
    <path class="cls-1" d="m346.9,239.4c-.05,1.35-1.18,2.4-2.53,2.36-1.35-.05-2.4-1.18-2.36-2.53.05-1.35,1.18-2.4,2.53-2.36,1.35.05,2.4,1.18,2.36,2.53Z"/>
    <path class="cls-1" d="m358.95,255.91c-.06,1.65-1.44,2.94-3.09,2.88-1.65-.06-2.94-1.44-2.88-3.09.06-1.65,1.44-2.94,3.09-2.88,1.65.06,2.94,1.44,2.88,3.09Z"/>
    <path class="cls-1" d="m366.23,274.87c-.07,1.93-1.68,3.43-3.61,3.37-1.93-.07-3.43-1.68-3.37-3.61.07-1.93,1.68-3.43,3.61-3.37,1.93.07,3.43,1.68,3.37,3.61Z"/>
    <path class="cls-1" d="m368.17,294.94c-.07,2.14-1.87,3.82-4.01,3.74-2.14-.07-3.82-1.87-3.74-4.01.07-2.14,1.87-3.82,4.01-3.74,2.14.07,3.82,1.87,3.74,4.01Z"/>
    <path class="cls-1" d="m364.81,314.72c-.08,2.34-2.04,4.16-4.38,4.08-2.34-.08-4.16-2.04-4.08-4.38.08-2.34,2.04-4.16,4.38-4.08s4.16,2.04,4.08,4.38Z"/>
    <path class="cls-1" d="m356.26,332.82c-.09,2.47-2.15,4.39-4.62,4.31-2.47-.09-4.39-2.15-4.31-4.62.09-2.47,2.15-4.39,4.62-4.31,2.47.09,4.39,2.15,4.31,4.62Z"/>
    <path class="cls-1" d="m343.27,347.99c-.09,2.6-2.27,4.63-4.86,4.54-2.6-.09-4.63-2.27-4.54-4.86.09-2.6,2.27-4.63,4.86-4.54,2.6.09,4.63,2.27,4.54,4.86Z"/>
    <path class="cls-1" d="m326.7,359.18c-.09,2.67-2.33,4.76-5.01,4.67-2.67-.09-4.76-2.33-4.67-5.01.09-2.67,2.33-4.76,5.01-4.67,2.67.09,4.76,2.33,4.67,5.01Z"/>
    <path class="cls-1" d="m307.71,365.59c-.09,2.71-2.37,4.84-5.09,4.74-2.71-.09-4.84-2.37-4.74-5.09.1-2.71,2.37-4.84,5.09-4.74,2.71.1,4.84,2.37,4.74,5.09Z"/>
    <path class="cls-1" d="m287.66,366.77c-.1,2.73-2.39,4.87-5.12,4.77-2.73-.1-4.87-2.39-4.77-5.12.1-2.73,2.39-4.87,5.12-4.77s4.87,2.39,4.77,5.12Z"/>
    <path class="cls-1" d="m267.92,362.67c-.09,2.71-2.37,4.83-5.08,4.73-2.71-.09-4.83-2.37-4.73-5.08.09-2.71,2.37-4.83,5.08-4.73,2.71.09,4.83,2.37,4.73,5.08Z"/>
    <path class="cls-1" d="m249.91,353.53c-.09,2.66-2.32,4.73-4.98,4.64-2.66-.09-4.73-2.32-4.64-4.98s2.32-4.73,4.98-4.64c2.66.09,4.73,2.32,4.64,4.98Z"/>
    <path class="cls-1" d="m234.84,340.02c-.09,2.56-2.24,4.57-4.81,4.48-2.57-.09-4.57-2.24-4.48-4.81.09-2.56,2.24-4.57,4.81-4.48,2.57.09,4.57,2.24,4.48,4.81Z"/>
    <path class="cls-1" d="m223.74,323.08c-.08,2.43-2.13,4.34-4.56,4.25-2.43-.09-4.34-2.13-4.25-4.56s2.13-4.34,4.56-4.25c2.43.08,4.34,2.13,4.25,4.56Z"/>
    <path class="cls-1" d="m217.46,303.89c-.08,2.3-2.01,4.1-4.31,4.02-2.3-.08-4.1-2.01-4.02-4.31s2.01-4.1,4.31-4.02c2.3.08,4.1,2.01,4.02,4.31Z"/>
    <path class="cls-1" d="m216.28,283.77c-.07,2.09-1.82,3.72-3.91,3.65-2.09-.07-3.72-1.82-3.65-3.91.07-2.09,1.82-3.72,3.91-3.65,2.09.07,3.72,1.82,3.65,3.91Z"/>
    <path class="cls-1" d="m220.36,264.15c-.07,1.87-1.63,3.33-3.51,3.27-1.87-.07-3.33-1.63-3.27-3.51.07-1.87,1.63-3.33,3.51-3.27,1.87.07,3.33,1.63,3.27,3.51Z"/>
    <path class="cls-1" d="m229.3,246.39c-.06,1.57-1.37,2.8-2.94,2.75-1.57-.06-2.8-1.37-2.75-2.95.05-1.57,1.37-2.8,2.94-2.75,1.57.06,2.8,1.37,2.75,2.95Z"/>
    <path class="cls-1" d="m242.5,231.73c-.04,1.25-1.09,2.22-2.33,2.18-1.25-.04-2.22-1.09-2.18-2.33.04-1.25,1.09-2.22,2.33-2.18,1.25.04,2.22,1.09,2.18,2.33Z"/>
    <path class="cls-1" d="m258.94,221.16c-.03.86-.75,1.54-1.62,1.51s-1.54-.75-1.51-1.62c.03-.86.75-1.54,1.62-1.51.86.03,1.54.75,1.51,1.62Z"/>
    <path class="cls-1" d="m277.39,215.47c-.01.4-.35.71-.74.69-.4-.01-.71-.35-.69-.74.01-.4.35-.71.74-.69s.71.35.69.74Z"/>
  </g>
  <g>
    <path class="cls-1" d="m377.03,266.55c-.53.33-1.23.17-1.56-.36-.33-.53-.17-1.23.36-1.56.53-.33,1.23-.17,1.56.36s.17,1.23-.36,1.56Z"/>
    <path class="cls-1" d="m381.31,290.7c-.97.6-2.24.31-2.85-.66-.6-.97-.31-2.24.66-2.85.97-.6,2.24-.31,2.85.66.6.97.31,2.24-.66,2.85Z"/>
    <path class="cls-1" d="m379.27,314.92c-1.35.84-3.12.43-3.96-.91-.84-1.35-.43-3.12.91-3.96s3.12-.43,3.96.91c.84,1.35.43,3.12-.91,3.96Z"/>
    <path class="cls-1" d="m371.09,337.55c-1.65,1.03-3.82.53-4.85-1.12-1.03-1.65-.53-3.82,1.12-4.85,1.65-1.03,3.82-.53,4.85,1.12,1.03,1.65.53,3.82-1.12,4.85Z"/>
    <path class="cls-1" d="m357.38,357.11c-1.92,1.2-4.46.62-5.66-1.31-1.2-1.92-.62-4.46,1.31-5.66,1.92-1.2,4.46-.62,5.66,1.31,1.2,1.92.62,4.46-1.31,5.66Z"/>
    <path class="cls-1" d="m339.09,372.21c-2.14,1.34-4.95.69-6.29-1.45-1.34-2.14-.69-4.95,1.45-6.29,2.14-1.34,4.95-.69,6.29,1.45,1.34,2.14.69,4.95-1.45,6.29Z"/>
    <path class="cls-1" d="m317.58,381.95c-2.33,1.46-5.4.75-6.86-1.58s-.75-5.4,1.58-6.86,5.4-.75,6.86,1.58c1.46,2.33.75,5.4-1.58,6.86Z"/>
    <path class="cls-1" d="m294.3,385.52c-2.46,1.54-5.7.79-7.24-1.67-1.54-2.46-.79-5.7,1.67-7.24,2.46-1.54,5.7-.79,7.24,1.67,1.54,2.46.79,5.7-1.67,7.24Z"/>
    <path class="cls-1" d="m270.96,382.83c-2.59,1.62-6,.83-7.62-1.76-1.62-2.59-.83-6,1.76-7.62,2.59-1.62,6-.83,7.62,1.76,1.62,2.59.83,6-1.76,7.62Z"/>
    <path class="cls-1" d="m249.14,374.02c-2.67,1.67-6.18.86-7.85-1.81-1.67-2.67-.86-6.18,1.81-7.85,2.67-1.67,6.18-.86,7.85,1.81,1.67,2.67.86,6.18-1.81,7.85Z"/>
    <path class="cls-1" d="m230.4,359.72c-2.71,1.69-6.28.87-7.97-1.84-1.69-2.71-.87-6.28,1.84-7.97,2.71-1.69,6.28-.87,7.97,1.84,1.69,2.71.87,6.28-1.84,7.97Z"/>
    <path class="cls-1" d="m216.06,340.94c-2.73,1.7-6.32.87-8.02-1.85-1.7-2.73-.87-6.32,1.85-8.02,2.73-1.7,6.32-.87,8.02,1.85,1.7,2.73.87,6.32-1.85,8.02Z"/>
    <path class="cls-1" d="m207.07,318.99c-2.7,1.69-6.27.87-7.96-1.84-1.69-2.7-.87-6.27,1.84-7.96,2.7-1.69,6.27-.87,7.96,1.84,1.69,2.7.87,6.27-1.84,7.96Z"/>
    <path class="cls-1" d="m204.13,295.41c-2.65,1.66-6.15.85-7.8-1.8-1.66-2.65-.85-6.15,1.8-7.8,2.65-1.66,6.15-.85,7.8,1.8,1.66,2.65.85,6.15-1.8,7.8Z"/>
    <path class="cls-1" d="m207.4,271.82c-2.56,1.6-5.93.82-7.53-1.74-1.6-2.56-.82-5.93,1.74-7.53,2.56-1.6,5.93-.82,7.53,1.74,1.6,2.56.82,5.93-1.74,7.53Z"/>
    <path class="cls-1" d="m216.62,249.85c-2.43,1.52-5.63.78-7.15-1.65-1.52-2.43-.78-5.63,1.65-7.15,2.43-1.52,5.63-.78,7.15,1.65,1.52,2.43.78,5.63-1.65,7.15Z"/>
    <path class="cls-1" d="m231.21,231.1c-2.3,1.44-5.33.74-6.76-1.56-1.44-2.3-.74-5.33,1.56-6.76,2.3-1.44,5.33-.74,6.76,1.56,1.44,2.3.74,5.33-1.56,6.76Z"/>
    <path class="cls-1" d="m250.05,216.72c-2.08,1.3-4.83.67-6.13-1.41-1.3-2.08-.67-4.83,1.42-6.13,2.08-1.3,4.83-.67,6.13,1.42,1.3,2.08.67,4.83-1.41,6.13Z"/>
    <path class="cls-1" d="m271.88,207.79c-1.87,1.17-4.33.6-5.49-1.27s-.6-4.33,1.27-5.49,4.33-.6,5.49,1.27c1.17,1.87.6,4.33-1.27,5.49Z"/>
    <path class="cls-1" d="m295.08,204.82c-1.57.98-3.64.5-4.62-1.07-.98-1.57-.5-3.64,1.07-4.62s3.64-.5,4.62,1.07c.98,1.57.5,3.64-1.07,4.62Z"/>
    <path class="cls-1" d="m318.07,208.05c-1.24.78-2.88.4-3.66-.84-.78-1.24-.4-2.88.84-3.66s2.88-.4,3.66.84.4,2.88-.84,3.66Z"/>
    <path class="cls-1" d="m339.18,217.14c-.86.54-2,.28-2.54-.59-.54-.86-.28-2,.59-2.54.86-.54,2-.28,2.54.59.54.86.28,2-.59,2.54Z"/>
    <path class="cls-1" d="m356.88,231.39c-.4.25-.92.13-1.17-.27-.25-.4-.13-.92.27-1.17.4-.25.92-.13,1.17.27s.13.92-.27,1.17Z"/>
  </g>
  <g>
    <path class="cls-1" d="m372.6,362.18c-.67-.3-.98-1.09-.68-1.76.3-.67,1.09-.98,1.76-.68s.98,1.09.68,1.76c-.3.67-1.09.98-1.76.68Z"/>
    <path class="cls-1" d="m351.86,382.24c-1.23-.55-1.78-1.98-1.23-3.21.55-1.23,1.98-1.78,3.21-1.23s1.78,1.98,1.23,3.21c-.55,1.23-1.98,1.78-3.21,1.23Z"/>
    <path class="cls-1" d="m326.89,396.18c-1.71-.76-2.47-2.76-1.71-4.47.76-1.71,2.76-2.47,4.47-1.71,1.71.76,2.47,2.76,1.71,4.47-.76,1.71-2.76,2.47-4.47,1.71Z"/>
    <path class="cls-1" d="m299.45,403.08c-2.09-.93-3.03-3.38-2.1-5.46.93-2.09,3.38-3.03,5.46-2.1,2.09.93,3.03,3.38,2.1,5.46-.93,2.09-3.38,3.03-5.46,2.1Z"/>
    <path class="cls-1" d="m271.35,402.59c-2.44-1.08-3.53-3.94-2.45-6.38,1.08-2.44,3.94-3.53,6.38-2.45,2.44,1.08,3.53,3.94,2.45,6.38s-3.94,3.53-6.38,2.45Z"/>
    <path class="cls-1" d="m244.59,394.68c-2.71-1.21-3.93-4.38-2.72-7.09,1.21-2.71,4.38-3.93,7.09-2.72,2.71,1.21,3.93,4.38,2.72,7.09-1.21,2.71-4.38,3.93-7.09,2.72Z"/>
    <path class="cls-1" d="m220.94,380.11c-2.96-1.32-4.28-4.78-2.97-7.73,1.32-2.96,4.78-4.28,7.73-2.97,2.96,1.32,4.28,4.78,2.97,7.73-1.32,2.96-4.78,4.28-7.73,2.97Z"/>
    <path class="cls-1" d="m202.15,359.75c-3.12-1.39-4.52-5.04-3.13-8.16,1.39-3.12,5.04-4.52,8.16-3.13,3.12,1.39,4.52,5.04,3.13,8.16-1.39,3.12-5.04,4.52-8.16,3.13Z"/>
    <path class="cls-1" d="m189.42,335.22c-3.28-1.46-4.76-5.31-3.3-8.59,1.46-3.28,5.31-4.76,8.59-3.3,3.28,1.46,4.76,5.31,3.3,8.59-1.46,3.28-5.31,4.76-8.59,3.3Z"/>
    <path class="cls-1" d="m183.65,308.14c-3.38-1.5-4.9-5.46-3.39-8.84,1.5-3.38,5.46-4.9,8.84-3.39,3.38,1.5,4.9,5.46,3.39,8.84-1.5,3.38-5.46,4.9-8.84,3.39Z"/>
    <path class="cls-1" d="m185.27,280.45c-3.43-1.53-4.98-5.55-3.45-8.99s5.55-4.98,8.99-3.45c3.43,1.53,4.98,5.55,3.45,8.99-1.53,3.43-5.55,4.98-8.99,3.45Z"/>
    <path class="cls-1" d="m194.16,254.11c-3.46-1.54-5.01-5.59-3.47-9.04,1.54-3.46,5.59-5.01,9.04-3.47,3.46,1.54,5.01,5.59,3.47,9.04-1.54,3.46-5.59,5.01-9.04,3.47Z"/>
    <path class="cls-1" d="m209.64,230.91c-3.43-1.53-4.97-5.54-3.44-8.97,1.53-3.43,5.54-4.97,8.97-3.44,3.43,1.53,4.97,5.54,3.44,8.97-1.53,3.43-5.54,4.97-8.97,3.44Z"/>
    <path class="cls-1" d="m230.71,212.53c-3.36-1.5-4.87-5.43-3.38-8.79s5.43-4.87,8.79-3.38c3.36,1.5,4.87,5.43,3.38,8.79-1.5,3.36-5.43,4.87-8.79,3.38Z"/>
    <path class="cls-1" d="m255.87,200.2c-3.25-1.44-4.7-5.25-3.26-8.49s5.25-4.7,8.49-3.26c3.25,1.44,4.7,5.25,3.26,8.49s-5.25,4.7-8.49,3.26Z"/>
    <path class="cls-1" d="m283.36,194.73c-3.08-1.37-4.47-4.98-3.09-8.06,1.37-3.08,4.98-4.47,8.06-3.09,3.08,1.37,4.47,4.98,3.09,8.06-1.37,3.08-4.98,4.47-8.06,3.09Z"/>
    <path class="cls-1" d="m311.25,196.63c-2.91-1.3-4.22-4.71-2.93-7.62,1.3-2.91,4.71-4.22,7.62-2.93,2.91,1.3,4.22,4.71,2.93,7.62-1.3,2.91-4.71,4.22-7.62,2.93Z"/>
    <path class="cls-1" d="m337.67,205.55c-2.64-1.18-3.83-4.27-2.65-6.91,1.18-2.64,4.27-3.83,6.91-2.65,2.64,1.18,3.83,4.27,2.65,6.91-1.18,2.64-4.27,3.83-6.91,2.65Z"/>
    <path class="cls-1" d="m360.74,220.96c-2.37-1.05-3.43-3.83-2.38-6.19,1.05-2.37,3.83-3.43,6.19-2.38,2.37,1.05,3.43,3.83,2.38,6.19-1.05,2.37-3.83,3.43-6.19,2.38Z"/>
    <path class="cls-1" d="m378.89,241.64c-1.99-.89-2.88-3.22-2-5.2.89-1.99,3.22-2.88,5.2-2,1.99.89,2.88,3.21,2,5.2-.89,1.99-3.21,2.88-5.2,2Z"/>
    <path class="cls-1" d="m390.87,266.18c-1.58-.7-2.29-2.55-1.58-4.12.7-1.58,2.55-2.29,4.12-1.58,1.58.7,2.29,2.55,1.58,4.12-.7,1.58-2.55,2.29-4.12,1.58Z"/>
    <path class="cls-1" d="m395.9,292.76c-1.09-.49-1.58-1.77-1.1-2.86s1.77-1.58,2.86-1.1c1.09.49,1.58,1.77,1.1,2.86-.49,1.09-1.77,1.58-2.86,1.1Z"/>
    <path class="cls-1" d="m393.64,319.39c-.5-.22-.73-.81-.51-1.32.22-.5.81-.73,1.32-.5.5.22.73.81.5,1.32-.22.5-.81.73-1.32.51Z"/>
  </g>
  <g>
    <path class="cls-1" d="m276.42,420.76c-.15-.85.42-1.67,1.27-1.82.85-.15,1.67.42,1.82,1.27.15.85-.42,1.67-1.27,1.82s-1.67-.42-1.82-1.27Z"/>
    <path class="cls-1" d="m243.21,413.73c-.27-1.56.76-3.04,2.32-3.31,1.56-.27,3.04.76,3.31,2.32.27,1.56-.76,3.04-2.32,3.31-1.56.27-3.04-.76-3.31-2.32Z"/>
    <path class="cls-1" d="m213.19,398.55c-.38-2.16,1.06-4.23,3.23-4.61s4.23,1.06,4.61,3.23c.38,2.16-1.06,4.23-3.23,4.61-2.16.38-4.23-1.06-4.61-3.23Z"/>
    <path class="cls-1" d="m188.4,376.33c-.47-2.65,1.3-5.17,3.95-5.64,2.65-.47,5.17,1.3,5.64,3.95.47,2.65-1.3,5.17-3.95,5.64-2.65.47-5.17-1.3-5.64-3.95Z"/>
    <path class="cls-1" d="m170.39,348.6c-.54-3.09,1.52-6.04,4.61-6.58,3.09-.55,6.04,1.52,6.58,4.61.55,3.09-1.52,6.04-4.61,6.58-3.09.55-6.04-1.52-6.58-4.61Z"/>
    <path class="cls-1" d="m160.5,317.29c-.61-3.43,1.69-6.71,5.12-7.32,3.43-.61,6.71,1.69,7.32,5.12.61,3.43-1.69,6.71-5.12,7.32-3.43.61-6.71-1.69-7.32-5.12Z"/>
    <path class="cls-1" d="m159.16,284.65c-.66-3.75,1.84-7.32,5.59-7.98s7.32,1.84,7.98,5.59c.66,3.75-1.84,7.32-5.59,7.98-3.75.66-7.32-1.84-7.98-5.59Z"/>
    <path class="cls-1" d="m166.65,252.92c-.7-3.96,1.94-7.73,5.9-8.43,3.96-.7,7.73,1.94,8.43,5.9.7,3.96-1.94,7.73-5.9,8.43-3.96.7-7.73-1.94-8.43-5.9Z"/>
    <path class="cls-1" d="m182.2,224.36c-.73-4.16,2.05-8.14,6.21-8.87,4.16-.73,8.14,2.05,8.87,6.21.73,4.16-2.05,8.14-6.21,8.87-4.16.73-8.13-2.05-8.87-6.21Z"/>
    <path class="cls-1" d="m204.82,200.92c-.76-4.29,2.11-8.37,6.39-9.13,4.29-.76,8.37,2.11,9.13,6.39.76,4.29-2.11,8.37-6.39,9.13-4.29.76-8.37-2.11-9.13-6.39Z"/>
    <path class="cls-1" d="m232.89,184.28c-.77-4.36,2.14-8.51,6.5-9.28,4.36-.77,8.51,2.14,9.28,6.5.77,4.36-2.14,8.51-6.5,9.28-4.36.77-8.51-2.14-9.28-6.5Z"/>
    <path class="cls-1" d="m264.43,175.63c-.77-4.38,2.15-8.56,6.54-9.34,4.38-.77,8.56,2.15,9.34,6.54.77,4.38-2.15,8.56-6.54,9.34-4.38.77-8.56-2.15-9.34-6.54Z"/>
    <path class="cls-1" d="m297.24,175.47c-.77-4.35,2.14-8.49,6.48-9.26,4.35-.77,8.49,2.14,9.26,6.48.77,4.35-2.14,8.49-6.48,9.26-4.35.77-8.49-2.14-9.26-6.48Z"/>
    <path class="cls-1" d="m329.03,183.92c-.75-4.26,2.09-8.33,6.36-9.08,4.26-.75,8.33,2.09,9.08,6.36.75,4.26-2.09,8.33-6.36,9.08-4.26.75-8.33-2.09-9.08-6.36Z"/>
    <path class="cls-1" d="m357.61,200.35c-.73-4.12,2.02-8.04,6.14-8.77,4.12-.73,8.04,2.02,8.77,6.14.73,4.12-2.02,8.04-6.14,8.77-4.12.73-8.04-2.02-8.77-6.14Z"/>
    <path class="cls-1" d="m381.03,223.57c-.69-3.91,1.92-7.63,5.83-8.32,3.91-.69,7.63,1.92,8.32,5.83.69,3.91-1.92,7.63-5.83,8.32-3.91.69-7.63-1.92-8.32-5.83Z"/>
    <path class="cls-1" d="m397.52,252.01c-.65-3.69,1.82-7.22,5.51-7.87,3.69-.65,7.22,1.82,7.87,5.51.65,3.69-1.82,7.22-5.51,7.87-3.69.65-7.22-1.82-7.87-5.51Z"/>
    <path class="cls-1" d="m406.21,283.65c-.59-3.35,1.64-6.54,4.99-7.13,3.35-.59,6.54,1.65,7.13,4.99.59,3.35-1.65,6.54-4.99,7.13-3.35.59-6.54-1.65-7.13-4.99Z"/>
    <path class="cls-1" d="m406.35,316.29c-.53-3,1.48-5.86,4.48-6.39,3-.53,5.86,1.47,6.39,4.48.53,3-1.48,5.86-4.48,6.39-3,.53-5.86-1.47-6.39-4.48Z"/>
    <path class="cls-1" d="m398.13,347.6c-.44-2.52,1.24-4.93,3.76-5.37,2.52-.44,4.93,1.24,5.37,3.76.44,2.52-1.24,4.93-3.76,5.37-2.52.44-4.93-1.24-5.37-3.76Z"/>
    <path class="cls-1" d="m382.07,375.43c-.35-2,.98-3.91,2.98-4.26,2-.35,3.91.98,4.26,2.98s-.98,3.91-2.98,4.26c-2,.35-3.91-.98-4.26-2.98Z"/>
    <path class="cls-1" d="m359.45,397.82c-.24-1.39.68-2.71,2.07-2.95,1.39-.24,2.71.68,2.95,2.07.24,1.39-.68,2.71-2.07,2.95-1.39.24-2.71-.68-2.95-2.07Z"/>
    <path class="cls-1" d="m331.99,413.13c-.11-.64.31-1.25.95-1.36.64-.11,1.25.31,1.36.95.11.64-.31,1.25-.95,1.36-.64.11-1.25-.31-1.36-.95Z"/>
  </g>
  <g>
    <path class="cls-1" d="m156.01,365.5c.73-.71,1.9-.69,2.61.05.71.73.69,1.9-.05,2.61-.73.71-1.9.69-2.61-.05-.71-.73-.69-1.9.05-2.61Z"/>
    <path class="cls-1" d="m141.01,328.49c1.34-1.29,3.47-1.25,4.76.08,1.29,1.34,1.25,3.47-.08,4.76-1.34,1.29-3.47,1.25-4.76-.08-1.29-1.34-1.25-3.47.08-4.76Z"/>
    <path class="cls-1" d="m136.07,289.22c1.86-1.8,4.82-1.74,6.62.12,1.8,1.86,1.74,4.82-.12,6.62-1.86,1.8-4.82,1.74-6.62-.12-1.8-1.86-1.74-4.82.12-6.62Z"/>
    <path class="cls-1" d="m141.44,250.41c2.28-2.2,5.9-2.13,8.1.14,2.2,2.28,2.13,5.9-.14,8.1-2.28,2.2-5.9,2.13-8.1-.14-2.2-2.28-2.13-5.9.14-8.1Z"/>
    <path class="cls-1" d="m156.64,214.61c2.66-2.56,6.89-2.49,9.45.17,2.56,2.66,2.49,6.89-.17,9.45-2.66,2.56-6.89,2.49-9.45-.17s-2.49-6.89.17-9.45Z"/>
    <path class="cls-1" d="m180.67,184.37c2.95-2.85,7.66-2.77,10.51.18,2.85,2.95,2.77,7.66-.18,10.51-2.95,2.85-7.66,2.77-10.51-.18-2.85-2.95-2.77-7.66.18-10.51Z"/>
    <path class="cls-1" d="m211.62,161.58c3.22-3.11,8.35-3.02,11.46.2,3.11,3.22,3.02,8.35-.2,11.46-3.22,3.11-8.35,3.02-11.46-.2-3.11-3.22-3.02-8.35.2-11.46Z"/>
    <path class="cls-1" d="m247.49,148.02c3.4-3.28,8.82-3.19,12.1.21,3.28,3.4,3.19,8.82-.21,12.1-3.4,3.28-8.82,3.19-12.1-.21-3.28-3.4-3.19-8.82.21-12.1Z"/>
    <path class="cls-1" d="m285.58,144.4c3.58-3.46,9.28-3.36,12.74.22,3.46,3.58,3.36,9.28-.22,12.74s-9.28,3.36-12.74-.22c-3.46-3.58-3.36-9.28.22-12.74Z"/>
    <path class="cls-1" d="m323.32,151.03c3.68-3.56,9.55-3.45,13.11.23,3.56,3.68,3.45,9.55-.23,13.11-3.68,3.56-9.55,3.45-13.11-.23-3.56-3.68-3.45-9.55.23-13.11Z"/>
    <path class="cls-1" d="m358.01,167.47c3.74-3.61,9.71-3.51,13.32.23,3.61,3.74,3.51,9.71-.23,13.32s-9.71,3.51-13.32-.23c-3.61-3.74-3.51-9.71.23-13.32Z"/>
    <path class="cls-1" d="m387.21,192.53c3.77-3.64,9.77-3.53,13.41.23,3.64,3.77,3.53,9.77-.23,13.41-3.77,3.64-9.77,3.53-13.41-.23-3.64-3.77-3.53-9.77.23-13.41Z"/>
    <path class="cls-1" d="m408.95,224.44c3.74-3.61,9.69-3.5,13.3.23,3.61,3.74,3.5,9.69-.23,13.3-3.74,3.61-9.69,3.5-13.3-.23-3.61-3.74-3.5-9.69.23-13.3Z"/>
    <path class="cls-1" d="m421.61,261c3.66-3.54,9.5-3.44,13.04.23,3.54,3.66,3.44,9.5-.23,13.04-3.66,3.54-9.5,3.44-13.04-.23-3.54-3.66-3.44-9.5.23-13.04Z"/>
    <path class="cls-1" d="m424.4,299.68c3.54-3.42,9.17-3.32,12.59.22,3.42,3.54,3.32,9.17-.22,12.59-3.54,3.42-9.17,3.32-12.59-.22-3.42-3.54-3.32-9.17.22-12.59Z"/>
    <path class="cls-1" d="m417.16,337.79c3.36-3.24,8.71-3.15,11.95.21,3.24,3.36,3.15,8.71-.21,11.95-3.36,3.24-8.71,3.15-11.95-.21-3.24-3.36-3.15-8.71.21-11.95Z"/>
    <path class="cls-1" d="m400.26,372.6c3.17-3.07,8.23-2.98,11.3.2,3.07,3.17,2.98,8.23-.2,11.3-3.17,3.07-8.23,2.98-11.3-.2-3.07-3.17-2.98-8.23.2-11.3Z"/>
    <path class="cls-1" d="m375.12,401.89c2.88-2.78,7.46-2.7,10.24.18,2.78,2.88,2.7,7.46-.18,10.24-2.88,2.78-7.46,2.7-10.24-.18-2.78-2.88-2.7-7.46.18-10.24Z"/>
    <path class="cls-1" d="m343.38,423.5c2.58-2.49,6.69-2.42,9.18.16,2.49,2.58,2.42,6.69-.16,9.18-2.58,2.49-6.69,2.42-9.18-.16s-2.42-6.69.16-9.18Z"/>
    <path class="cls-1" d="m307.43,436.08c2.17-2.09,5.62-2.03,7.71.13,2.09,2.17,2.03,5.62-.13,7.71-2.17,2.09-5.62,2.03-7.71-.13-2.09-2.17-2.03-5.62.13-7.71Z"/>
    <path class="cls-1" d="m269.72,438.71c1.72-1.66,4.46-1.61,6.11.11,1.66,1.72,1.61,4.46-.11,6.11-1.72,1.66-4.46,1.61-6.11-.11-1.66-1.72-1.61-4.46.11-6.11Z"/>
    <path class="cls-1" d="m233.01,431.39c1.19-1.15,3.09-1.12,4.24.07,1.15,1.19,1.12,3.09-.07,4.24s-3.09,1.12-4.24-.07c-1.15-1.19-1.12-3.09.07-4.24Z"/>
    <path class="cls-1" d="m200.01,414.68c.55-.53,1.42-.51,1.95.03.53.55.51,1.42-.03,1.95s-1.42.51-1.95-.03c-.53-.55-.51-1.42.03-1.95Z"/>
  </g>
  <g>
    <path class="cls-1" d="m130.69,211.7c1.17.25,1.92,1.4,1.67,2.58s-1.4,1.92-2.58,1.67c-1.17-.25-1.92-1.4-1.67-2.58s1.4-1.92,2.58-1.67Z"/>
    <path class="cls-1" d="m156.93,172.73c2.14.45,3.5,2.56,3.05,4.69s-2.56,3.5-4.69,3.05c-2.14-.45-3.5-2.56-3.05-4.69.45-2.14,2.56-3.5,4.69-3.05Z"/>
    <path class="cls-1" d="m191.97,142.07c2.98.63,4.87,3.56,4.24,6.53-.63,2.98-3.56,4.87-6.53,4.24-2.98-.63-4.87-3.56-4.24-6.53.63-2.98,3.56-4.87,6.53-4.24Z"/>
    <path class="cls-1" d="m233.35,121.78c3.64.77,5.97,4.35,5.19,7.99-.77,3.64-4.35,5.96-7.99,5.19-3.64-.77-5.96-4.35-5.19-7.99.77-3.64,4.35-5.97,7.99-5.19Z"/>
    <path class="cls-1" d="m278.27,113.05c4.25.9,6.96,5.08,6.06,9.33-.9,4.25-5.08,6.96-9.33,6.06-4.25-.9-6.96-5.08-6.06-9.33.9-4.25,5.08-6.96,9.33-6.06Z"/>
    <path class="cls-1" d="m323.58,116.59c4.72,1,7.74,5.65,6.73,10.37-1,4.72-5.65,7.74-10.37,6.73-4.72-1-7.74-5.65-6.73-10.37,1-4.72,5.65-7.74,10.37-6.73Z"/>
    <path class="cls-1" d="m366.17,131.79c5.15,1.1,8.44,6.16,7.35,11.31-1.1,5.15-6.16,8.44-11.31,7.35-5.15-1.1-8.44-6.16-7.35-11.31,1.1-5.15,6.16-8.44,11.31-7.35Z"/>
    <path class="cls-1" d="m403,157.85c5.44,1.16,8.91,6.5,7.75,11.94-1.16,5.44-6.5,8.91-11.94,7.75-5.44-1.16-8.91-6.5-7.75-11.94,1.16-5.44,6.5-8.91,11.94-7.75Z"/>
    <path class="cls-1" d="m431.58,192.61c5.72,1.22,9.38,6.84,8.16,12.57-1.22,5.72-6.84,9.38-12.57,8.16-5.72-1.22-9.38-6.84-8.16-12.57,1.22-5.72,6.84-9.38,12.57-8.16Z"/>
    <path class="cls-1" d="m449.94,233.79c5.89,1.25,9.65,7.04,8.4,12.94-1.25,5.89-7.04,9.65-12.94,8.4-5.89-1.25-9.65-7.04-8.4-12.94,1.25-5.89,7.04-9.65,12.94-8.4Z"/>
    <path class="cls-1" d="m456.73,278.44c5.99,1.27,9.81,7.16,8.54,13.15-1.27,5.99-7.16,9.81-13.15,8.54-5.99-1.27-9.81-7.16-8.54-13.15,1.27-5.99,7.16-9.81,13.15-8.54Z"/>
    <path class="cls-1" d="m451.49,323.4c6.03,1.28,9.87,7.2,8.59,13.23-1.28,6.03-7.2,9.87-13.23,8.59-6.03-1.28-9.87-7.2-8.59-13.23,1.28-6.03,7.2-9.87,13.23-8.59Z"/>
    <path class="cls-1" d="m434.68,365.6c5.98,1.27,9.79,7.15,8.52,13.12-1.27,5.98-7.15,9.79-13.12,8.52-5.98-1.27-9.79-7.15-8.52-13.12,1.27-5.98,7.15-9.79,13.12-8.52Z"/>
    <path class="cls-1" d="m407.34,402.01c5.86,1.25,9.6,7.01,8.35,12.86-1.25,5.86-7.01,9.6-12.86,8.35-5.86-1.25-9.6-7.01-8.35-12.86,1.25-5.86,7.01-9.6,12.86-8.35Z"/>
    <path class="cls-1" d="m371.45,430.17c5.66,1.2,9.27,6.76,8.07,12.42-1.2,5.66-6.76,9.27-12.42,8.07-5.66-1.2-9.27-6.76-8.07-12.42,1.2-5.66,6.76-9.27,12.42-8.07Z"/>
    <path class="cls-1" d="m329.52,448.18c5.37,1.14,8.8,6.42,7.66,11.79-1.14,5.37-6.42,8.8-11.79,7.66-5.37-1.14-8.8-6.42-7.66-11.79,1.14-5.37,6.42-8.8,11.79-7.66Z"/>
    <path class="cls-1" d="m284.46,454.6c5.08,1.08,8.32,6.07,7.24,11.15-1.08,5.08-6.07,8.32-11.15,7.24-5.08-1.08-8.32-6.07-7.24-11.15,1.08-5.08,6.07-8.32,11.15-7.24Z"/>
    <path class="cls-1" d="m239.35,449.35c4.6.98,7.54,5.5,6.56,10.11-.98,4.6-5.5,7.54-10.11,6.56-4.6-.98-7.54-5.5-6.56-10.11.98-4.6,5.5-7.54,10.1-6.56Z"/>
    <path class="cls-1" d="m197.39,432.61c4.13.88,6.76,4.93,5.88,9.06-.88,4.13-4.93,6.76-9.06,5.88-4.13-.88-6.76-4.93-5.88-9.06.88-4.13,4.93-6.76,9.06-5.88Z"/>
    <path class="cls-1" d="m161.47,405.82c3.47.74,5.68,4.14,4.94,7.61-.74,3.47-4.14,5.68-7.61,4.94-3.47-.74-5.68-4.14-4.94-7.61.74-3.47,4.14-5.68,7.61-4.94Z"/>
    <path class="cls-1" d="m134.09,370.78c2.75.58,4.5,3.29,3.92,6.03-.58,2.75-3.29,4.5-6.03,3.92-2.75-.58-4.5-3.29-3.92-6.03s3.29-4.5,6.03-3.92Z"/>
    <path class="cls-1" d="m117.08,330.15c1.91.4,3.12,2.28,2.72,4.18-.4,1.91-2.28,3.12-4.18,2.72-1.91-.4-3.12-2.28-2.72-4.18s2.28-3.12,4.18-2.72Z"/>
    <path class="cls-1" d="m111.67,286.97c.88.19,1.44,1.05,1.25,1.92s-1.05,1.44-1.92,1.25c-.88-.19-1.44-1.05-1.25-1.92s1.05-1.44,1.92-1.25Z"/>
  </g>
  <g>
    <path class="cls-1" d="m264.04,85.82c.53,1.31-.1,2.8-1.41,3.33-1.31.53-2.8-.1-3.33-1.41-.53-1.31.1-2.8,1.41-3.33,1.31-.53,2.8.1,3.33,1.41Z"/>
    <path class="cls-1" d="m319.31,85.77c.96,2.38-.19,5.1-2.57,6.06-2.38.96-5.1-.19-6.06-2.57-.96-2.38.19-5.1,2.57-6.06,2.38-.96,5.1.19,6.06,2.57Z"/>
    <path class="cls-1" d="m372.28,99.79c1.34,3.32-.26,7.09-3.58,8.43-3.32,1.34-7.09-.26-8.43-3.58-1.34-3.32.26-7.09,3.58-8.43,3.32-1.34,7.09.26,8.44,3.58Z"/>
    <path class="cls-1" d="m419.29,126.8c1.64,4.06-.32,8.68-4.38,10.32-4.06,1.64-8.68-.32-10.32-4.38-1.64-4.06.32-8.68,4.38-10.32,4.06-1.64,8.68.32,10.32,4.38Z"/>
    <path class="cls-1" d="m457.35,164.87c1.91,4.74-.37,10.13-5.11,12.05-4.74,1.91-10.13-.38-12.04-5.11-1.91-4.74.37-10.13,5.11-12.05,4.74-1.91,10.13.37,12.05,5.11Z"/>
    <path class="cls-1" d="m483.7,211.38c2.13,5.27-.42,11.26-5.68,13.39-5.27,2.13-11.26-.42-13.39-5.68-2.13-5.27.42-11.26,5.68-13.39,5.27-2.13,11.26.42,13.39,5.68Z"/>
    <path class="cls-1" d="m496.9,262.92c2.32,5.75-.45,12.29-6.2,14.61-5.75,2.32-12.29-.45-14.61-6.2-2.32-5.75.45-12.29,6.2-14.61,5.75-2.32,12.29.45,14.61,6.2Z"/>
    <path class="cls-1" d="m495.7,315.99c2.45,6.07-.48,12.97-6.54,15.42-6.07,2.45-12.97-.48-15.42-6.54-2.45-6.07.48-12.97,6.54-15.42,6.07-2.45,12.97.48,15.42,6.54Z"/>
    <path class="cls-1" d="m480.61,366.74c2.58,6.38-.51,13.65-6.89,16.23-6.38,2.58-13.65-.51-16.23-6.89-2.58-6.38.51-13.65,6.89-16.23,6.38-2.58,13.65.51,16.23,6.89Z"/>
    <path class="cls-1" d="m452.52,411.73c2.66,6.57-.52,14.05-7.09,16.7-6.57,2.66-14.05-.52-16.7-7.09-2.66-6.57.52-14.05,7.09-16.71,6.57-2.65,14.05.52,16.7,7.09Z"/>
    <path class="cls-1" d="m413.44,447.74c2.7,6.68-.53,14.28-7.21,16.97-6.68,2.7-14.28-.53-16.97-7.21-2.7-6.68.53-14.28,7.21-16.97,6.68-2.7,14.28.53,16.97,7.21Z"/>
    <path class="cls-1" d="m366.14,472.2c2.71,6.72-.53,14.37-7.25,17.08-6.72,2.71-14.37-.53-17.08-7.25-2.71-6.72.53-14.37,7.25-17.08s14.37.53,17.08,7.25Z"/>
    <path class="cls-1" d="m313.92,483.56c2.69,6.67-.53,14.25-7.19,16.94-6.67,2.69-14.25-.53-16.94-7.19-2.69-6.67.53-14.25,7.19-16.94,6.67-2.69,14.25.53,16.94,7.19Z"/>
    <path class="cls-1" d="m260.43,480.86c2.64,6.53-.52,13.97-7.05,16.61-6.53,2.64-13.97-.52-16.61-7.05-2.64-6.53.52-13.97,7.05-16.61,6.53-2.64,13.97.52,16.61,7.05Z"/>
    <path class="cls-1" d="m209.35,464.37c2.55,6.31-.5,13.49-6.81,16.04s-13.49-.5-16.04-6.81c-2.55-6.31.5-13.49,6.81-16.04s13.49.5,16.04,6.81Z"/>
    <path class="cls-1" d="m164.19,435.32c2.42,5.99-.47,12.81-6.46,15.22-5.99,2.42-12.81-.47-15.22-6.46-2.42-5.99.47-12.81,6.46-15.23,5.99-2.42,12.81.47,15.22,6.46Z"/>
    <path class="cls-1" d="m128.29,395.6c2.29,5.66-.45,12.11-6.11,14.4-5.66,2.29-12.11-.45-14.4-6.11-2.29-5.66.45-12.11,6.11-14.4,5.66-2.29,12.11.45,14.4,6.11Z"/>
    <path class="cls-1" d="m103.74,348.15c2.07,5.13-.41,10.97-5.54,13.05-5.13,2.07-10.97-.41-13.05-5.54-2.07-5.13.41-10.97,5.54-13.05,5.13-2.07,10.97.41,13.05,5.54Z"/>
    <path class="cls-1" d="m92.46,296.21c1.86,4.6-.36,9.84-4.97,11.7-4.6,1.86-9.84-.36-11.7-4.97-1.86-4.6.36-9.84,4.97-11.7,4.6-1.86,9.84.36,11.7,4.97Z"/>
    <path class="cls-1" d="m94.96,243.55c1.56,3.87-.31,8.27-4.17,9.83-3.87,1.56-8.27-.31-9.83-4.17-1.56-3.87.31-8.27,4.17-9.83,3.87-1.56,8.27.31,9.83,4.17Z"/>
    <path class="cls-1" d="m111.13,193.8c1.24,3.06-.24,6.55-3.31,7.79-3.06,1.24-6.55-.24-7.79-3.31s.24-6.55,3.31-7.79c3.06-1.24,6.55.24,7.79,3.31Z"/>
    <path class="cls-1" d="m139.56,150.48c.86,2.12-.17,4.54-2.29,5.4-2.12.86-4.54-.17-5.4-2.29-.86-2.12.17-4.54,2.29-5.4,2.12-.86,4.54.17,5.4,2.29Z"/>
    <path class="cls-1" d="m178.11,116.79c.39.98-.08,2.09-1.05,2.49s-2.09-.08-2.49-1.06c-.39-.98.08-2.09,1.05-2.49.98-.39,2.09.08,2.49,1.06Z"/>
  </g>
  <g>
    <path class="cls-1" d="m474.54,133.07c-.93,1.38-2.8,1.74-4.18.81-1.38-.93-1.74-2.8-.81-4.18s2.8-1.74,4.18-.81,1.74,2.8.81,4.18Z"/>
    <path class="cls-1" d="m510.95,186.95c-1.69,2.51-5.1,3.17-7.61,1.48-2.51-1.69-3.17-5.1-1.48-7.61s5.1-3.17,7.61-1.48c2.51,1.69,3.17,5.1,1.48,7.61Z"/>
    <path class="cls-1" d="m532.13,247.83c-2.35,3.49-7.09,4.41-10.58,2.06-3.49-2.35-4.41-7.09-2.06-10.58s7.09-4.41,10.58-2.06c3.49,2.35,4.41,7.09,2.06,10.58Z"/>
    <path class="cls-1" d="m536.71,311.45c-2.88,4.27-8.68,5.4-12.95,2.52-4.27-2.88-5.4-8.68-2.52-12.95,2.88-4.27,8.68-5.4,12.95-2.52,4.27,2.88,5.4,8.68,2.52,12.95Z"/>
    <path class="cls-1" d="m524.62,373.62c-3.36,4.98-10.13,6.3-15.11,2.94-4.98-3.36-6.3-10.13-2.94-15.11,3.36-4.98,10.13-6.3,15.11-2.94,4.98,3.36,6.3,10.13,2.94,15.11Z"/>
    <path class="cls-1" d="m496.59,429.92c-3.74,5.54-11.26,7-16.79,3.26-5.54-3.74-7-11.26-3.26-16.79,3.74-5.54,11.26-7,16.79-3.26,5.54,3.74,7,11.26,3.26,16.79Z"/>
    <path class="cls-1" d="m455,476.7c-4.08,6.04-12.28,7.64-18.33,3.56-6.04-4.08-7.64-12.28-3.56-18.33,4.08-6.04,12.28-7.64,18.33-3.56,6.04,4.08,7.64,12.28,3.56,18.33Z"/>
    <path class="cls-1" d="m402.45,510.45c-4.3,6.38-12.96,8.06-19.34,3.76-6.38-4.3-8.06-12.96-3.76-19.34,4.3-6.38,12.96-8.06,19.34-3.76,6.38,4.3,8.06,12.96,3.76,19.34Z"/>
    <path class="cls-1" d="m343.03,529.11c-4.53,6.72-13.65,8.49-20.36,3.96-6.72-4.53-8.49-13.65-3.96-20.36,4.53-6.72,13.65-8.49,20.36-3.96,6.72,4.53,8.49,13.65,3.96,20.36Z"/>
    <path class="cls-1" d="m280.67,531.31c-4.66,6.91-14.05,8.74-20.96,4.07-6.91-4.66-8.74-14.05-4.07-20.96,4.66-6.91,14.05-8.74,20.96-4.07,6.91,4.66,8.74,14.05,4.07,20.96Z"/>
    <path class="cls-1" d="m219.84,516.88c-4.74,7.02-14.27,8.88-21.3,4.14-7.02-4.74-8.88-14.27-4.14-21.3,4.74-7.02,14.27-8.88,21.3-4.14,7.02,4.74,8.88,14.27,4.14,21.3Z"/>
    <path class="cls-1" d="m164.86,486.84c-4.77,7.07-14.36,8.93-21.43,4.17-7.07-4.77-8.93-14.36-4.17-21.43,4.77-7.07,14.36-8.93,21.43-4.17,7.07,4.77,8.93,14.36,4.17,21.43Z"/>
    <circle class="cls-1" cx="106.73" cy="434.83" r="15.31" transform="translate(-309.74 270.45) rotate(-54.67)"/>
    <circle class="cls-1" cx="74.42" cy="381.04" r="15.01" transform="translate(-69.91 20.63) rotate(-10.77)"/>
    <path class="cls-1" d="m69.35,328.77c-4.48,6.64-13.49,8.39-20.12,3.91-6.64-4.48-8.39-13.49-3.91-20.12,4.48-6.64,13.49-8.39,20.12-3.91,6.64,4.48,8.39,13.49,3.91,20.12Z"/>
    <path class="cls-1" d="m67.97,265.62c-4.25,6.3-12.8,7.96-19.1,3.71-6.3-4.25-7.96-12.8-3.71-19.1,4.25-6.3,12.8-7.96,19.1-3.71,6.3,4.25,7.96,12.8,3.71,19.1Z"/>
    <path class="cls-1" d="m83.1,204.46c-4.02,5.96-12.11,7.53-18.06,3.51-5.96-4.02-7.53-12.11-3.51-18.06,4.02-5.96,12.11-7.53,18.06-3.51,5.96,4.02,7.53,12.11,3.51,18.06Z"/>
    <path class="cls-1" d="m113.23,149.3c-3.64,5.4-10.97,6.82-16.37,3.18-5.4-3.64-6.82-10.97-3.18-16.37,3.64-5.4,10.97-6.82,16.37-3.18,5.4,3.64,6.82,10.97,3.18,16.37Z"/>
    <path class="cls-1" d="m156.47,104.14c-3.26,4.84-9.84,6.12-14.68,2.85-4.84-3.26-6.12-9.84-2.85-14.68,3.26-4.84,9.84-6.12,14.68-2.85,4.84,3.26,6.12,9.84,2.85,14.68Z"/>
    <path class="cls-1" d="m209.47,71.93c-2.74,4.07-8.26,5.14-12.33,2.4-4.07-2.74-5.14-8.26-2.4-12.33,2.74-4.07,8.26-5.14,12.33-2.4,4.07,2.74,5.14,8.26,2.4,12.33Z"/>
    <path class="cls-1" d="m268.63,54.97c-2.17,3.22-6.55,4.07-9.77,1.9-3.22-2.17-4.07-6.55-1.9-9.77,2.17-3.22,6.55-4.07,9.77-1.9,3.22,2.17,4.07,6.55,1.9,9.77Z"/>
    <path class="cls-1" d="m329.59,54.2c-1.51,2.24-4.54,2.82-6.78,1.32-2.24-1.51-2.82-4.54-1.32-6.78,1.51-2.24,4.54-2.82,6.78-1.32,2.24,1.51,2.82,4.54,1.32,6.78Z"/>
    <path class="cls-1" d="m387.81,69.64c-.69,1.03-2.09,1.3-3.12.61-1.03-.69-1.3-2.09-.61-3.12.69-1.03,2.09-1.3,3.12-.61,1.03.69,1.3,2.09.61,3.12Z"/>
  </g>
  <g>
    <path class="cls-1" d="m566.94,369.47c-1.95,0-3.54-1.58-3.54-3.54s1.58-3.54,3.54-3.54,3.54,1.58,3.54,3.54-1.58,3.54-3.54,3.54Z"/>
    <path class="cls-1" d="m538.34,440.43c-3.56,0-6.45-2.89-6.45-6.45s2.89-6.45,6.45-6.45,6.45,2.89,6.45,6.45-2.89,6.45-6.45,6.45Z"/>
    <path class="cls-1" d="m492.9,501.13c-4.95,0-8.97-4.01-8.97-8.97s4.02-8.97,8.97-8.97,8.97,4.02,8.97,8.97-4.02,8.97-8.97,8.97Z"/>
    <path class="cls-1" d="m433.86,547.45c-6.06,0-10.97-4.91-10.97-10.97s4.91-10.97,10.97-10.97,10.97,4.91,10.97,10.97-4.91,10.97-10.97,10.97Z"/>
    <path class="cls-1" d="m365.27,576.56c-7.07,0-12.81-5.73-12.81-12.81s5.73-12.81,12.81-12.81,12.81,5.73,12.81,12.81-5.73,12.81-12.81,12.81Z"/>
    <path class="cls-1" d="m291.91,586.26c-7.86,0-14.23-6.37-14.23-14.23s6.37-14.23,14.23-14.23,14.23,6.37,14.23,14.23-6.37,14.23-14.23,14.23Z"/>
    <circle class="cls-1" cx="218.93" cy="560.94" r="15.53" transform="translate(-369.56 688.45) rotate(-80.91)"/>
    <path class="cls-1" d="m151.45,547.43c-9.05,0-16.39-7.34-16.39-16.39s7.34-16.39,16.39-16.39,16.39,7.34,16.39,16.39-7.34,16.39-16.39,16.39Z"/>
    <circle class="cls-1" cx="94.15" cy="484.48" r="17.26"/>
    <path class="cls-1" d="m50.98,442.37c-9.81,0-17.76-7.95-17.76-17.76s7.95-17.76,17.76-17.76,17.76,7.95,17.76,17.76-7.95,17.76-17.76,17.76Z"/>
    <path class="cls-1" d="m25.03,373.55c-9.97,0-18.05-8.08-18.05-18.05s8.08-18.05,18.05-18.05,18.05,8.08,18.05,18.05-8.08,18.05-18.05,18.05Z"/>
    <path class="cls-1" d="m18.16,300.16c-10.03,0-18.16-8.13-18.16-18.16s8.13-18.16,18.16-18.16,18.16,8.13,18.16,18.16-8.13,18.16-18.16,18.16Z"/>
    <path class="cls-1" d="m30.65,227.26c-9.95,0-18.02-8.07-18.02-18.02s8.07-18.02,18.02-18.02,18.02,8.07,18.02,18.02-8.07,18.02-18.02,18.02Z"/>
    <path class="cls-1" d="m61.86,160.01c-9.75,0-17.66-7.91-17.66-17.66s7.91-17.66,17.66-17.66,17.66,7.91,17.66,17.66-7.91,17.66-17.66,17.66Z"/>
    <path class="cls-1" d="m109.5,103.01c-9.42,0-17.06-7.64-17.06-17.05s7.64-17.06,17.06-17.06,17.05,7.64,17.05,17.06-7.64,17.05-17.05,17.05Z"/>
    <path class="cls-1" d="m170.19,60.13c-8.94,0-16.19-7.25-16.19-16.19s7.25-16.19,16.19-16.19,16.19,7.25,16.19,16.19-7.25,16.19-16.19,16.19Z"/>
    <circle class="cls-1" cx="239.79" cy="19.34" r="15.31"/>
    <path class="cls-1" d="m313.41,27.75c-7.66,0-13.87-6.21-13.87-13.87s6.21-13.87,13.87-13.87,13.87,6.21,13.87,13.87-6.21,13.87-13.87,13.87Z"/>
    <path class="cls-1" d="m385.91,40.2c-6.87,0-12.44-5.57-12.44-12.44s5.57-12.44,12.44-12.44,12.44,5.57,12.44,12.44-5.57,12.44-12.44,12.44Z"/>
    <path class="cls-1" d="m452.19,70.71c-5.77,0-10.45-4.68-10.45-10.45s4.68-10.45,10.45-10.45,10.45,4.68,10.45,10.45-4.68,10.45-10.45,10.45Z"/>
    <circle class="cls-1" cx="507.66" cy="108.97" r="8.28" transform="translate(-2.6 205.01) rotate(-22.77)"/>
    <path class="cls-1" d="m548.5,176.2c-3.17,0-5.74-2.57-5.74-5.74s2.57-5.74,5.74-5.74,5.74,2.57,5.74,5.74-2.57,5.74-5.74,5.74Z"/>
    <path class="cls-1" d="m571.75,243.14c-1.46,0-2.64-1.18-2.64-2.64s1.18-2.64,2.64-2.64,2.64,1.18,2.64,2.64-1.18,2.64-2.64,2.64Z"/>
  </g>
</svg>